<svg xmlns="http://www.w3.org/2000/svg" width="18" height="18"><defs><clipPath id="a"><path transform="translate(3757.597 3151.597)" fill="none" d="M0 0h18v18H0z"/></clipPath></defs><g transform="translate(-3757.597 -3151.597)" clip-path="url(#a)"><g transform="translate(3759.821 3152.597)"><path d="M6.776 2.362a5.488 5.488 0 00-5.464 5.511v3.937h10.927V7.873a5.488 5.488 0 00-5.463-5.511z" fill="#e2ad00"/><path d="M6.775 2.362a5.463 5.463 0 00-5.463 5.463v3.122h8.584a1.3 1.3 0 001.3-1.3v-5.02a5.45 5.45 0 00-4.421-2.265z" fill="#ffce00"/><path d="M.525 12.851h12.5v2.1H.525z" fill="#474747"/><path d="M.525 12.851v1.575h10.673a1.046 1.046 0 001.041-1.05v-.525z" fill="#686868"/><path d="M5.216 12.851l-2.1 2.1H5.74l2.1-2.1zM.525 12.851v2.1l2.1-2.1z" fill="#f7a23f"/><path d="M0 14.95h13.552V16H0z" fill="#383838"/><path d="M0 15.475h12.506a.523.523 0 00.521-.525H0z" fill="#686868"/><path d="M0 11.803h13.552v1.05H0z" fill="#383838"/><path d="M6.775 0a.262.262 0 01.262.262v1.05a.262.262 0 01-.262.262.262.262 0 01-.262-.262V.262A.262.262 0 016.775 0zM9.37 1.733l.948-.948a.257.257 0 01.364 0l.007.007a.257.257 0 010 .364l-.948.948a.257.257 0 01-.364 0l-.007-.007a.257.257 0 010-.364zM2.865.788a.262.262 0 01.371 0l.941.941a.262.262 0 010 .371.262.262 0 01-.371 0l-.941-.941a.262.262 0 010-.371z" fill="#ffce00"/><ellipse cx="1.678" cy="1.594" rx="1.678" ry="1.594" transform="translate(5.098 5.484)" fill="#ff4e00"/><path d="M6.779 8.67a1.585 1.585 0 01-.528-.081v3.215h1.05V8.589a1.554 1.554 0 01-.522.081z" fill="#474747"/><path d="M11.213 8.134a.262.262 0 01-.262-.262 4.2 4.2 0 00-4.2-4.2.262.262 0 110-.525 4.73 4.73 0 014.724 4.724.262.262 0 01-.262.263zM11.189 9.443a.262.262 0 01-.262-.262v-.525a.262.262 0 01.525 0v.525a.262.262 0 01-.263.262z" fill="rgba(255,255,255,0.8)"/><path d="M10.403 12.851l-2.1 2.1h2.624l2.1-2.1z" fill="#f7a23f"/><path d="M0 12.328h12.506a.523.523 0 00.521-.525H0z" fill="#686868"/><path d="M6.259 14.426l1.576-1.575H5.21l-1.575 1.575zM1.05 14.426l1.575-1.575h-2.1v1.575zM11.19 14.426a1.035 1.035 0 00.315-.053l.68-.68a1.036 1.036 0 00.055-.318v-.524h-1.837l-1.575 1.575z" fill="#ffd657"/><path d="M6.786 5.481a1.639 1.639 0 00-1.687 1.562 1.547 1.547 0 00.457 1.126h.92a1.441 1.441 0 001.349-1.355l.043-.948a1.63 1.63 0 00-1.082-.385z" fill="#ff7000"/><ellipse cx=".671" cy=".587" rx=".671" ry=".587" transform="translate(5.772 6.155)" fill="#efefef"/><path d="M6.253 10.994a.785.785 0 00.525-.739V8.671a1.58 1.58 0 01-.528-.082z" fill="#686868"/></g></g></svg>