<?xml version="1.0" encoding="utf-8"?>
<!-- Generator: Adobe Illustrator 25.1.0, SVG Export Plug-In . SVG Version: 6.00 Build 0)  -->
<svg version="1.1" id="_x2211_π_xBF_ÃæÓ_x5F_1" xmlns="http://www.w3.org/2000/svg" xmlns:xlink="http://www.w3.org/1999/xlink"
	 x="0px" y="0px" viewBox="0 0 624.48 236.91" style="enable-background:new 0 0 624.48 236.91;" xml:space="preserve">
<style type="text/css">
	.st0{fill:#FFFFFF;}
	.st1{fill:#040000;}
</style>
<g>
	<g>
		<path class="st0" d="M106.08,84.33c-0.95-1.68-1.64-3.47-3.23-4.64c-0.16-0.12-0.51-0.17-0.65-0.08
			c-2.06,1.31-4.23,2.48-6.03,4.17c-0.57,0.54-1.08,1.15-1.56,1.77c-0.7,0.9-1.07,1.91-0.89,3.09c0.09,0.62,0.02,1.26,0.02,1.91
			c-0.86,2.05-2.65,3.24-4.37,4.5c-0.48,0.35-1.06,0.3-1.57-0.02c-0.47-0.29-0.91-0.63-1.36-0.95c-0.88-0.63-1.38-1.51-1.63-2.54
			c-0.15-0.61-0.24-1.24-0.34-1.86c-0.16-1.01-0.32-2.03-0.46-3.05c-0.09-0.63-0.17-1.25-0.19-1.88c-0.05-1.66,0.06-3.32-0.15-4.98
			c-0.03-0.23,0-0.47,0.04-0.71c0.29-1.79,0.68-3.57,0.84-5.37c0.12-1.42,0.61-2.77,0.7-4.19c0.02-0.38,0.22-0.75,0.34-1.12
			c0.42-1.35,0.96-2.66,1.01-4.1c0.01-0.15,0.03-0.33,0.11-0.44c0.87-1.19,1.16-2.58,1.42-3.98c0.1-0.56,0.32-1.05,0.69-1.48
			c0.31-0.36,0.7-0.69,0.88-1.11c0.57-1.28,1.72-2.03,2.64-2.98c0.4-0.41,0.91-0.64,1.48-0.64c1.19-0.01,2.35,0.1,3.51,0.47
			c1,0.32,1.56,1.04,2.04,1.85c0.15,0.25,0.19,0.61,0.17,0.92c-0.05,0.55-0.14,1.1-0.29,1.62c-0.44,1.52-0.95,3.01-1.39,4.53
			c-0.28,0.98-0.49,1.98-0.72,2.97c-0.33,1.46-0.63,2.93-1,4.39c-0.23,0.92-0.57,1.8-0.82,2.72c-0.1,0.37-0.12,0.78-0.11,1.17
			c0,0.45,0.62,0.89,1.01,0.74c1.47-0.56,2.94-1.13,4.4-1.7c0.59-0.23,0.81-0.69,0.86-1.29c0.1-1.26,0.26-2.52,0.33-3.78
			c0.13-2.37,0.66-4.69,0.92-7.04c0.03-0.23,0.08-0.47,0.14-0.7c0.72-2.75,1.44-5.5,2.18-8.24c0.12-0.45,0.3-0.9,0.46-1.34
			c0.98-2.75,1.91-5.52,2.46-8.4c0.04-0.23,0.09-0.47,0.19-0.68c0.61-1.28,1.19-2.58,1.87-3.83c0.6-1.1,1.57-1.77,2.85-1.87
			c1.59-0.12,3.16,0.01,4.7,0.45c0.38,0.11,0.76,0.24,1.09,0.46c0.74,0.48,1.52,0.82,2.38,1c0.76,0.16,1.22,0.73,1.48,1.42
			c0.38,0.98,0.49,2.05,0.08,3.01c-0.62,1.48-0.88,3.03-1.22,4.57c-0.68,3.08-1.25,6.19-1.95,9.27c-0.26,1.15-0.33,2.34-0.83,3.44
			c-0.09,0.21-0.12,0.46-0.16,0.69c-0.32,2.35-0.63,4.7-0.97,7.04c-0.24,1.64-0.57,3.26-0.79,4.9c-0.15,1.09-0.24,2.2-0.23,3.31
			c0,0.62,0.22,1.24,0.4,1.84c0.36,1.2,0.03,2.35-0.21,3.5c-0.05,0.22-0.21,0.42-0.34,0.62c-0.25,0.4-0.52,0.79-0.76,1.2
			c-1,1.72-2.11,2.87-3.72,3.86c-0.4,0.25-0.87,0.38-1.15,0.81c-0.11,0.17-0.14,0.56,0.04,0.62c1.74,0.54,2.83,1.96,4.12,3.1
			c0.81,0.72,1.02,1.76,1.18,2.78c0.07,0.47,0.07,0.95,0.05,1.42c-0.12,2.63-0.54,5.19-1.9,7.5c-0.69,1.16-1.54,2.2-2.62,3.03
			c-0.56,0.44-1.14,0.85-1.73,1.25c-1.11,0.76-2.23,1.5-3.33,2.27c-0.98,0.69-2.05,1.18-3.2,1.5c-0.68,0.19-1.39,0.22-2.04,0.57
			c-0.32,0.17-0.77,0.12-1.16,0.14c-0.48,0.02-0.93-0.1-1.33-0.4c-0.57-0.43-1.14-0.84-1.73-1.24c-1.26-0.86-1.9-2.08-2.04-3.57
			c-0.04-0.39-0.02-0.79,0.04-1.18c0.07-0.55,0.19-1.09,0.32-1.63c0.19-0.84,0.28-1.74,0.64-2.51c0.63-1.35,1.42-2.64,2.17-3.94
			c0.63-1.09,1.28-2.18,1.96-3.24c1.44-2.26,2.93-4.5,4.36-6.76C105.05,86.33,105.53,85.33,106.08,84.33L106.08,84.33L106.08,84.33z
			 M109.83,96.23c-0.03-0.25-0.06-0.56-0.11-0.87c-0.19-1.2-0.87-1.98-2-2.41c-0.29-0.11-0.66-0.09-0.87,0.14
			c-0.31,0.35-0.64,0.69-0.87,1.09c-1.41,2.45-2.63,5-3.73,7.61c-0.3,0.72-0.51,1.48-0.73,2.24c-0.06,0.22-0.05,0.47-0.06,0.7
			c-0.01,0.25,0.24,0.72,0.47,0.75c0.22,0.03,0.5,0.07,0.66-0.04c2.55-1.75,4.76-3.84,6.43-6.46
			C109.56,98.17,109.77,97.25,109.83,96.23L109.83,96.23L109.83,96.23z"/>
		<path class="st0" d="M159.13,92.58c0.16,0.01,0.48,0.03,0.79,0.04c1.76,0.05,3.18,0.85,4.41,2.04c0.43,0.41,0.54,0.97,0.35,1.54
			c-0.27,0.82-0.56,1.64-0.85,2.46c-0.21,0.59-0.46,1.17-0.5,1.82c-0.02,0.29-0.18,0.59-0.32,0.87c-1.02,1.97-1.8,4.04-2.57,6.11
			c-0.27,0.74-0.6,1.46-0.9,2.19c-0.24,0.59-0.5,1.16-0.72,1.76c-0.91,2.44-1.87,4.85-3.07,7.17c-0.43,0.84-0.73,1.75-1.06,2.64
			c-0.66,1.78-1.58,3.44-2.28,5.2c-0.47,1.17-0.72,2.41-1.25,3.57c-0.92,2.01-1.77,4.07-2.39,6.18c-0.74,2.5-1.91,4.86-2.28,7.47
			c-0.03,0.23-0.08,0.47-0.16,0.69c-1.57,4.05-2.62,8.28-3.98,12.4c-0.72,2.17-1.35,4.37-2.07,6.54c-0.19,0.59-0.41,1.18-0.67,1.76
			c-0.97,2.16-1.87,4.36-2.34,6.69c-0.18,0.87-0.44,1.67-0.82,2.46c-0.41,0.85-0.77,1.73-1.2,2.58c-0.25,0.49-0.54,0.97-0.87,1.41
			c-0.53,0.71-1.17,1.26-2.09,1.46c-0.45,0.1-0.86,0.36-1.29,0.55c-0.74,1.07-1.53,0.64-2.47,0.21c-1.32-0.61-2.15-1.48-2.46-2.94
			c-0.31-1.46-0.79-2.89-1.2-4.33c-0.22-0.78-0.2-1.56-0.05-2.35c0.2-1.08,0.43-2.15,0.36-3.28c-0.04-0.6,0.21-1.24,0.44-1.82
			c0.23-0.59,0.54-1.15,0.89-1.67c1.01-1.53,1.65-3.23,2.33-4.91c0.51-1.24,0.95-2.51,1.42-3.76c0.06-0.15,0.1-0.3,0.17-0.44
			c1.83-3.25,3.14-6.72,4.37-10.23c1.1-3.13,2.15-6.28,3.22-9.42c1.12-3.29,2.23-6.58,3.38-9.85c0.58-1.64,1.2-3.26,1.92-4.84
			c0.63-1.37,1-2.82,1.63-4.18c0.9-1.93,1.6-3.95,2.41-5.93c0.45-1.1,0.98-2.16,1.43-3.26c0.42-1.02,0.82-2.06,1.14-3.11
			c0.16-0.53,0.34-1.04,0.6-1.53c0.21-0.41,0.3-0.89,0.42-1.34c0.08-0.29-0.3-0.65-0.57-0.56c-0.3,0.09-0.63,0.16-0.87,0.33
			c-0.84,0.61-1.77,1.03-2.7,1.47c-0.71,0.34-1.35,0.84-2.08,1.11c-0.84,0.31-1.32,1.16-2.21,1.34c-0.89,0.18-1.53,0.81-2.25,1.28
			c-0.73,0.47-1.39,1.04-2.09,1.56c-1.41,1.03-2.64,2.24-3.8,3.53c-0.7,0.78-1.55,1.08-2.51,1.13c-0.79,0.04-1.58-0.16-2.27-0.57
			c-0.81-0.49-1.16-1.28-1.13-2.21c0.02-0.71,0.22-1.38,0.5-2.06c0.34-0.83,0.75-1.52,1.52-2.04c1.18-0.78,2.38-1.56,3.36-2.62
			c0.21-0.22,0.5-0.38,0.78-0.54c3.27-1.93,6.64-3.68,10.02-5.39c0.63-0.32,1.32-0.53,1.98-0.79c0.52-0.2,1.07-0.33,1.54-0.6
			c0.7-0.4,1.44-0.63,2.22-0.8c0.46-0.1,0.93-0.23,1.34-0.44c0.78-0.41,1.57-0.72,2.46-0.82c0.38-0.04,0.77-0.2,1.1-0.4
			c1.08-0.64,2.22-0.78,3.43-0.56C158.82,92.55,158.9,92.55,159.13,92.58L159.13,92.58L159.13,92.58z"/>
		<path class="st0" d="M145.3,63.5c0.48-1.09,1.05-2.22,1.47-3.4c0.37-1.03,0.65-2.11,0.16-3.23c-0.19-0.43-0.03-0.8,0.33-1.01
			c1.56-0.94,3.21-1.67,4.97-2.16c0.56-0.16,1.1-0.09,1.62,0.15c1.14,0.52,1.9,1.4,2.39,2.52c0.27,0.6,0.25,1.23,0.09,1.86
			c-0.21,0.83-1.15,2.93-1.7,3.88c-0.16,0.27-0.39,0.55-0.41,0.84c-0.06,0.83-0.6,1.45-0.87,2.18c-0.25,0.67-0.52,1.3-1.01,1.85
			c-0.25,0.28-0.36,0.7-0.52,1.06c-0.41,0.94-0.87,1.85-1.4,2.74c-0.4,0.67-0.83,1.37-0.87,2.18c-0.04,1.12-0.69,1.9-1.38,2.66
			c-0.21,0.23-0.47,0.42-0.72,0.62c-0.36,0.31-0.8,0.56-1.07,0.93c-0.91,1.22-2.13,1.83-3.59,2.1c-0.38,0.07-0.75,0.26-1.1,0.43
			c-0.21,0.1-0.39,0.27-0.63,0.43c-0.23,1.38-0.49,2.77-0.69,4.18c-0.06,0.38-0.01,0.79,0.09,1.17c0.05,0.18,0.31,0.33,0.5,0.44
			c0.12,0.07,0.31,0.06,0.46,0.03c2-0.46,4.02-0.85,5.89-1.77c0.5-0.25,1.03-0.37,1.57-0.5c1.91-0.47,3.83-0.97,5.72-1.52
			c1.67-0.49,3.44-0.56,5.08-1.15c1.1,0,2.2-0.24,3.28,0.18c0.58,0.23,1.23,0.31,1.83,0.49c0.66,0.2,1.06,0.68,1.19,1.35
			c0.08,0.38,0.1,0.78,0.1,1.18c-0.02,1.05-0.49,1.8-1.5,2.18c-0.66,0.25-1.32,0.52-1.98,0.77c-0.22,0.08-0.44,0.2-0.67,0.24
			c-2.11,0.33-4.11,1.09-6.22,1.46c-2.58,0.45-5.05,1.25-7.43,2.34c-0.28,0.13-0.61,0.17-0.9,0.26c-0.45,0.14-0.94,0.23-1.33,0.47
			c-1.55,0.95-3.26,1.58-4.86,2.44c-1.88,1.01-3.75,2.03-5.59,3.11c-0.81,0.48-1.55,1.1-2.25,1.72c-1.6,1.42-3.39,2.59-5.04,3.94
			c-0.71,0.58-1.54,0.73-2.45,0.66c-0.88-0.06-1.71-0.23-2.48-0.69c-0.72-0.42-1.16-1.05-1.47-1.8c-0.09-0.21-0.1-0.46-0.14-0.69
			c-0.01-0.08-0.01-0.16,0-0.24c0.38-2.89,0.55-3.75,3.2-5.42c1.4-0.89,2.8-1.78,4.22-2.63c0.89-0.53,1.41-1.29,1.51-2.28
			c0.1-1.02,0.1-2.05,0.11-3.08c0-0.56-0.38-0.88-0.91-0.83c-0.55,0.05-1.1,0.16-1.65,0.16c-0.55,0-1.11-0.04-1.65-0.15
			c-0.91-0.18-1.58-0.75-1.95-1.58c-0.38-0.86-0.68-1.77-0.96-2.67c-0.48-1.56-1.15-4.97-1.32-6.48c-0.03-0.31-0.06-0.63-0.03-0.95
			c0.22-2.82,0.07-5.67,0.72-8.45c-0.08-0.97,0.28-1.86,0.47-2.78c0.19-0.92,0.03-1.89,0.42-2.79c0.12-0.28,0.13-0.62,0.13-0.94
			c-0.02-1.68,0.41-3.29,0.76-4.91c0.08-0.38,0.16-0.77,0.19-1.16c0.04-0.56,0.2-1.07,0.45-1.58c0.89-1.77,1.02-1.94,2.82-2.64
			c1.12-0.43,2.27-0.68,3.47-0.34c0.3,0.08,0.63,0.07,0.94,0.11c0.23,0.03,0.5,0.03,0.69,0.14c1.29,0.75,2.72,1.36,3.52,2.72
			c0.48,0.81,0.86,1.68,1.25,2.54c0.09,0.2,0.04,0.47,0.07,0.7c0.19,1.59-0.14,3.14-0.46,4.67c-0.12,0.6-0.47,1.17-0.8,1.69
			c-0.31,0.49-0.4,1.02-0.48,1.57c-0.06,0.45,0.3,0.93,0.78,1.03c0.23,0.05,0.46,0.12,0.7,0.12c1.82-0.03,3.64-0.06,5.45-0.13
			C144.07,64.04,144.7,63.93,145.3,63.5L145.3,63.5L145.3,63.5z M142.96,70.22c-0.65-0.17-1.14,0.14-1.65,0.29
			c-1.05,0.32-2.09,0.67-3.14,1c-0.46,0.15-0.91,0.12-1.39,0c-1.81-0.48-3.22,0.24-4.37,1.59c-0.24,0.28-0.4,0.7-0.45,1.07
			c-0.12,0.93-0.17,1.88-0.22,2.82c-0.03,0.49,0.49,0.92,0.93,0.77c0.67-0.23,1.34-0.46,1.98-0.75c1.92-0.9,3.83-1.81,5.73-2.75
			c0.63-0.31,1.24-0.68,1.82-1.08c0.25-0.17,0.48-0.43,0.6-0.7C143.12,71.73,143.19,70.97,142.96,70.22L142.96,70.22L142.96,70.22z"
			/>
		<path class="st0" d="M52.07,80.73c-1.36,0.01-2.56-0.35-3.7-0.92c-0.98-0.49-1.58-1.28-1.88-2.32c-0.04-0.15-0.07-0.31-0.1-0.46
			c-0.3-1.58,0.11-2.41,1.49-3.4c2.71-1.96,5.69-3.44,8.71-4.79c2.44-1.09,4.99-1.96,7.55-2.76c0.6-0.19,1.22-0.35,1.79-0.61
			c1.96-0.9,4.05-1.32,6.14-1.72c1-0.19,1.99-0.54,3.03-0.43c0.9,0.09,1.62-0.59,2.52-0.56c0.78,0.03,1.58-0.08,2.36-0.14
			c0.15-0.01,0.31-0.08,0.45-0.15c0.32-0.14,0.63-0.08,0.92,0.05c0.65,0.28,1.32,0.54,1.94,0.89c2.12,1.16,2.48,2.14,1.59,4.49
			c-0.42,1.1-1.14,2.04-2.32,2.57c-0.87,0.39-1.59,0.99-2.15,1.81c-0.35,0.51-0.94,0.85-1.27,1.37c-0.31,0.47-0.64,0.89-1.04,1.28
			c-0.3,0.29-0.39,0.67-0.45,1.07c-0.08,0.51,0.07,0.94,0.49,1.25c0.25,0.18,0.52,0.35,0.79,0.51c2.01,1.21,2.88,3.06,2.94,5.34
			c0.04,1.79-0.7,3.39-1.41,4.97c-0.13,0.28-0.34,0.54-0.58,0.75c-1.36,1.21-2.49,2.63-3.86,3.82c-1.3,1.14-2.59,2.28-4.09,3.18
			c-0.55,0.33-1.13,0.54-1.76,0.68c-2.03,0.46-3.53-0.43-4.8-1.88c-0.2-0.23-0.31-0.55-0.44-0.84c-0.15-0.36-0.21-0.79-0.43-1.09
			c-0.84-1.12-0.83-2.31-0.5-3.59c0.46-1.76,1.03-3.47,1.75-5.13c0.34-0.79,0.51-1.67,0.84-2.46c0.36-0.86,0.53-1.82,1.21-2.54
			c0.51-1.32,1.35-2.52,1.59-3.93c0.14-0.82,0.47-1.48,0.99-2.1c0.2-0.24,0.33-0.53,0.49-0.81c0.12-0.21,0-0.64-0.21-0.87
			c-0.21-0.22-0.63-0.33-0.86-0.21c-0.29,0.14-0.58,0.26-0.84,0.43c-0.6,0.4-1.27,0.62-1.96,0.8c-0.9,0.24-1.86,0.38-2.56,1.13
			c-0.14,0.15-0.42,0.2-0.65,0.25c-1.72,0.41-3.19,1.33-4.62,2.33c-0.39,0.27-0.79,0.52-1.2,0.75c-0.56,0.31-1.09,0.66-1.45,1.2
			c-0.37,0.56-0.78,0.96-1.49,1.03c-0.28,0.03-0.56,0.27-0.81,0.46C53.53,79.92,52.81,80.39,52.07,80.73L52.07,80.73L52.07,80.73z
			 M75.3,82.2c-0.35,0-0.5,0-0.66,0c-0.69,0.02-1.23,0.35-1.53,0.94c-0.43,0.83-0.82,1.7-1.13,2.58c-0.28,0.82-0.31,1.69-0.08,2.56
			c0.08,0.32,0.61,0.65,0.92,0.55c0.22-0.07,0.45-0.14,0.64-0.27c1.24-0.89,2.15-2.07,2.9-3.36c0.42-0.72,0.41-1.51,0.09-2.27
			c-0.16-0.38-0.44-0.64-0.87-0.7C75.42,82.2,75.27,82.2,75.3,82.2L75.3,82.2L75.3,82.2z"/>
		<path class="st0" d="M55.97,51.42c0.58,0.11,1.06,0.38,1.64,0.09c1.13-0.56,2.47-0.52,3.58-1.17c0.18-0.11,0.46-0.08,0.69-0.05
			c0.97,0.14,1.88-0.01,2.74-0.49c0.5-0.28,1.05-0.26,1.61-0.18c0.78,0.11,1.57,0.24,2.34-0.04c2.37-0.12,4.74-0.11,7.04,0.62
			c0.83,0.26,1.7,0.31,2.51,0.68c0.92,0.41,1.53,1.09,2.04,1.9c0.08,0.13,0.14,0.28,0.17,0.44c0.19,1.04,0.08,2.05-0.31,3.02
			c-0.05,0.14-0.16,0.3-0.29,0.36c-1.12,0.61-1.99,1.55-2.96,2.34c-0.39,0.31-0.8,0.47-1.28,0.55c-2.72,0.46-5.45,0.93-8.18,1.37
			c-1.32,0.21-2.61,0.62-3.98,0.54c-0.35-0.02-0.76,0.2-1.09,0.4c-0.83,0.52-1.72,0.78-2.69,0.81c-1.1,0.03-1.98,0.47-2.66,1.32
			c-0.31,0.38-0.69,0.63-1.12,0.85c-1.81,0.97-3.62,1.93-5.41,2.94c-0.89,0.5-1.73,1.1-2.59,1.66c-1.19,0.77-2.37,1.56-3.57,2.32
			c-1.32,0.83-2.68,0.8-4.05,0.09c-1.12-0.58-2.19-1.24-3.4-1.63c-0.26-0.08-0.52-0.4-0.62-0.67c-0.32-0.89-0.61-1.78-0.99-2.65
			c-0.49-1.1-0.55-2.29-0.14-3.47c0.16-0.45,0.3-0.91,0.36-1.37c0.15-1.15,0.55-2.12,1.56-2.79c0.18-0.12,0.38-0.37,0.39-0.57
			c0.04-0.69,0.36-1,1.04-0.98c0.16,0,0.34,0.01,0.47-0.06c1.11-0.68,2.36-0.83,3.6-1.07c0.31-0.06,0.6-0.19,0.89-0.31
			c0.65-0.27,1.3-0.55,2.01-0.68c0.54-0.09,1.05-0.34,1.55-0.56c0.72-0.32,1.44-0.64,2.22-0.79c0.3-0.06,0.61-0.18,0.87-0.34
			c0.47-0.31,0.95-0.54,1.54-0.51c0.4,0.02,0.76-0.13,1.11-0.35c0.33-0.2,0.7-0.4,1.08-0.46C54.6,52.39,55.32,51.95,55.97,51.42
			L55.97,51.42L55.97,51.42z"/>
		<path class="st0" d="M189.82,67.24c1.09-0.05,2.59-0.14,4.08-0.17c0.55-0.01,1.1,0.07,1.64,0.18c0.62,0.12,1.22,0.32,1.84,0.45
			c0.25,0.05,0.45-0.1,0.59-0.3c0.09-0.13,0.2-0.26,0.24-0.41c1.33-4.62,2.36-6.12,4.4-10.16c0.07-0.14,0.15-0.28,0.23-0.41
			c0.51-0.91,0.93-1.83,0.78-2.92c-0.04-0.31,0.23-0.61,0.54-0.67c0.38-0.08,0.78-0.17,1.16-0.14c0.47,0.04,0.92,0.24,1.38,0.33
			c0.57,0.11,1,0.4,1.44,0.77c0.66,0.56,1.19,1.25,1.97,1.69c0.39,0.22,0.67,0.66,0.95,1.03c0.28,0.38,0.49,0.81,0.74,1.21
			c1.25,2.05,1.35,4.16,0.37,6.34c-0.85,1.88-1.44,3.84-1.76,5.87c-0.04,0.23-0.05,0.47-0.07,0.71c-0.02,0.25,0.33,0.63,0.6,0.64
			c0.47,0.02,0.95,0.03,1.42,0.04c1.5,0,3-0.02,4.5,0c1.6,0.03,3.13,0.41,4.58,1.07c0.64,0.29,1.25,0.68,1.83,1.08
			c0.61,0.42,0.89,1.43,0.62,2.14c-0.17,0.44-0.37,0.87-0.6,1.29c-0.32,0.58-0.81,0.94-1.47,1.11c-1.14,0.3-2.28,0.65-3.41,0.98
			c-1.83,0.54-3.54,1.35-5.2,2.28c-1.37,0.77-2.7,1.64-4.25,2.04c-0.22,0.06-0.42,0.23-0.64,0.31c-0.97,0.34-1.55,1-1.88,1.97
			c-0.26,0.74-0.65,1.44-0.99,2.15c-0.22,0.45-0.58,0.73-1.06,0.88c-0.77,0.24-1.55,0.32-2.34,0.24c-0.31-0.03-0.63-0.12-0.89-0.28
			c-0.8-0.51-1.6-1.02-2.34-1.6c-1.68-1.33-2.33-3.13-2.13-5.23c0.2-2.13,0.21-4.26-0.11-6.39c-0.02-0.15-0.06-0.31-0.09-0.46
			c-0.05-0.28-0.37-0.58-0.64-0.63c-0.64-0.11-1.28-0.12-1.85,0.18c-0.7,0.37-1.37,0.78-2.03,1.2c-0.36,0.23-0.44,0.95-0.16,1.29
			c0.3,0.36,0.66,0.68,0.96,1.04c0.5,0.61,1.03,1.19,1.35,1.93c0.56,1.3,0.58,2.62,0.15,3.94c-0.31,0.97-0.73,1.85-1.63,2.53
			c-1.33,0.99-2.51,2.17-3.74,3.28c-0.9,0.81-1.93,1.37-3.1,1.66c-1.15,0.27-2.3,0.57-3.46,0.8c-1.65,0.31-2.91-0.59-3.29-2.27
			c-0.18-0.79-0.2-1.57-0.07-2.36c0.29-1.64,0.75-3.22,1.48-4.72c0.79-1.63,1.59-3.25,2.37-4.88c0.24-0.51,0.56-0.95,0.97-1.33
			c0.52-0.48,0.99-1.02,1.21-1.72c0.08-0.25-0.19-0.72-0.44-0.7c-0.39,0.05-0.8,0.05-1.16,0.17c-2.02,0.67-4.09,1.22-6.05,2.09
			c-1.16,0.51-2.3,1.02-3.35,1.74c-0.52,0.35-1.09,0.63-1.66,0.91c-1.11,0.53-2.27,0.6-3.48,0.35c-0.85-0.17-1.42-0.65-1.79-1.4
			c-0.29-0.57-0.49-1.17-0.47-1.82c0.01-0.24,0.04-0.48,0.02-0.71c-0.14-1.25,0.34-2.13,1.5-2.67c1.07-0.5,2.04-1.17,3.15-1.62
			c1.09-0.45,2.14-1,3.29-1.33c0.61-0.17,1.21-0.37,1.79-0.62c1.77-0.75,3.64-0.98,5.51-1.28
			C184.37,67.54,186.89,67.46,189.82,67.24L189.82,67.24L189.82,67.24z M184.06,85.96c0.04,0.24,0.06,0.32,0.07,0.39
			c0.02,0.3,0.39,0.56,0.66,0.47c0.3-0.11,0.62-0.17,0.87-0.34c1.18-0.78,2.32-1.62,3.28-2.66c0.42-0.46,0.82-0.95,1.16-1.48
			c0.49-0.78,0.49-1.64,0.21-2.49c-0.26-0.79-1.26-1.14-1.91-0.7c-1.95,1.34-3.17,3.24-4.08,5.36
			C184.12,85,184.13,85.58,184.06,85.96L184.06,85.96L184.06,85.96z"/>
		<path class="st0" d="M169.91,101.03c0-0.16-0.03-0.64,0.01-1.11c0.02-0.31,0.08-0.64,0.22-0.91c0.8-1.55,1.24-3.24,1.78-4.88
			c0.21-0.63,0.5-1.16,1.04-1.54c0.18-0.13,0.44-0.28,0.64-0.25c1.17,0.21,2.34,0.44,3.22,1.34c0.21,0.22,0.4,0.48,0.54,0.75
			c0.55,1.11,0.54,1.11,1.69,0.64c2.85-1.16,5.76-2.13,8.75-2.9c2.91-0.74,5.89-1.15,8.8-1.86c2.04-0.12,4.06-0.54,6.11-0.55
			c2.93-0.01,5.83-0.34,8.74-0.54c2.05-0.14,4.09-0.35,6.13-0.54c0.56-0.06,1.1-0.08,1.61,0.21c0.64,0.36,1.32,0.49,2.05,0.46
			c0.31-0.01,0.65-0.03,0.94,0.05c0.88,0.27,1.68,0.72,1.7,1.98c0.04,1.94-1.02,3.52-2.86,4.16c-0.67,0.23-1.34,0.51-2.06,0.2
			c-1.65,0.04-3.31-0.3-4.96-0.01c-0.15,0.03-0.32,0.04-0.47,0.02c-2.13-0.24-4.24,0.18-6.37,0.23c-1.73,0.04-3.47,0.09-5.2,0.18
			c-2.52,0.13-5.04,0.22-7.55,0.47c-1.32,0.14-2.66,0.22-3.97,0.59c-1.13,0.32-2.31,0.46-3.45,0.76c-1.54,0.4-3.04,0.95-4.41,1.69
			c-2.28,1.24-4.52,2.6-6.28,4.57c-0.66,0.74-1.47,1.17-2.4,1.44c-0.49,0.14-0.93,0.08-1.38-0.13c-0.73-0.34-1.29-0.89-1.87-1.43
			c-0.64-0.59-0.92-1.25-0.82-2.1C169.86,101.82,169.87,101.58,169.91,101.03L169.91,101.03L169.91,101.03z"/>
		<path class="st0" d="M190.65,56.81c0.67,0.47,1.19,0.83,1.7,1.19c0.26,0.18,0.52,0.36,0.75,0.57c0.95,0.87,1.38,1.89,0.96,3.18
			c-0.12,0.37-0.23,0.75-0.35,1.17c-0.59,0.33-1.22,0.64-1.82,1.01c-0.82,0.51-1.72,0.78-2.66,0.93c-3.5,0.55-7.01,1.1-10.51,1.66
			c-0.78,0.12-1.55,0.28-2.33,0.42c-0.63,0.11-1.2,0.35-1.74,0.7c-0.53,0.34-1.09,0.62-1.66,0.89c-1.55,0.72-3.06,0.58-4.53-0.25
			c-0.49-0.28-0.93-0.57-1.18-1.1c-0.1-0.21-0.27-0.39-0.4-0.59c-1.16-1.8-1.28-2.1-1.26-4.18c0.01-1.1,0.09-2.2,0.02-3.3
			c-0.02-0.32,0.19-0.63,0.49-0.76c0.64-0.28,1.29-0.6,1.96-0.74c1.7-0.35,3.4-0.65,5.12-0.88c0.85-0.11,1.73-0.03,2.6-0.01
			c1.03,0.03,2.05,0.03,3.06-0.21c0.3-0.07,0.62-0.06,0.93-0.06c0.63,0,1.25,0.07,1.87,0.02c0.71-0.05,1.4-0.18,2.11-0.03
			c0.69,0.15,1.42-0.17,2.1,0.14C187.44,56.65,189.01,56.73,190.65,56.81L190.65,56.81L190.65,56.81z"/>
		<path class="st0" d="M266.94,95.67c-0.69,0-1.39,0.02-2.08-0.01c-0.39-0.02-0.79-0.1-1.16-0.22c-1.4-0.48-2.77-1.03-4.18-1.46
			c-1.51-0.46-3.04-0.85-4.57-1.22c-0.47-0.11-0.98-0.08-1.48-0.1c-0.73-0.02-1.37,0.23-1.86,0.75c-1.14,1.21-2.3,2.39-3.37,3.66
			c-1.14,1.35-1.93,2.9-2.59,4.52c-0.66,1.61-1.89,2.6-3.52,3.26c-2.15,0.86-4.06,0.62-5.75-0.96c-2.1-1.04-2.69-2.97-3.1-4.99
			c-0.07-0.36-0.02-0.77,0.06-1.14c0.42-1.81,0.45-3.63,0.13-5.45c-0.2-1.17-0.04-2.24,0.45-3.36c0.86-1.94,1.46-3.99,2.26-5.95
			c1.61-3.95,3.53-7.73,6.34-11.04c0.69-0.81,1.24-1.73,1.81-2.64c1.03-1.64,2.44-3.03,3.28-4.8c0.12-0.25,0.33-0.48,0.54-0.68
			c1.79-1.69,3.09-3.75,4.47-5.74c0.29-0.41,0.61-0.74,1.01-1.03c0.4-0.28,0.89-0.53,1.13-0.92c0.64-1.03,1.51-1.47,2.73-1.3
			c0.29,0.04,0.6,0.08,0.89,0.03c0.88-0.17,1.71-0.26,2.62,0.09c0.7,0.27,1.55,0.02,2.3,0.43c0.4,0.22,0.96,0.18,1.44,0.26
			c0.29,0.05,0.65,0.03,0.86,0.19c1.37,1.05,3.25,0.87,4.64,1.84c0.64,0.45,1.27,0.93,1.84,1.45c1.12,1.03,1.97,2.19,1.56,3.82
			c0.16,1.58-0.5,3.03-0.83,4.52c-0.1,0.45-0.39,0.88-0.68,1.27c-0.4,0.55-0.8,1.13-1.32,1.55c-2.33,1.87-3.79,4.41-5.6,6.68
			c-1.02,1.29-2.13,2.52-3.01,3.92c-0.31,0.49-0.55,1.01-0.78,1.54c-0.26,0.61-0.02,1.16,0.41,1.58c0.34,0.33,0.85,0.5,1.19,0.83
			c1.06,1.03,2.45,1.6,3.63,2.46c1.19,0.87,2.63,1.35,4.21,0.97c0.63-0.15,1.19,0.1,1.68,0.43c1.12,0.78,1.69,1.89,1.72,3.2
			c0.02,1-0.46,1.81-1.36,2.43C271.08,95.59,269.08,95.9,266.94,95.67L266.94,95.67L266.94,95.67z"/>
		<path class="st0" d="M276.46,80.07c0.16-2.11-0.07-4.24,0.39-6.32c-0.15-1.74,0.29-3.43,0.35-5.15c0.08-2.31,0.46-4.58,0.8-6.86
			c0.3-1.99,0.51-4,0.77-6c0.07-0.57,0.12-1.15,0.25-1.7c0.6-2.43,1.02-4.89,1.21-7.39c0.03-0.38,0.14-0.75,0.22-1.13
			c0.44-1.87,0.88-3.74,1.09-5.66c0.13-1.13,0.46-2.25,0.77-3.36c0.36-1.3,0.85-2.56,0.94-3.92c0.02-0.28,0.16-0.56,0.29-0.81
			c1.11-2.21,1.42-4.57,1.43-6.99c0-0.51,0.18-0.93,0.64-1.22c0.42-0.26,0.81-0.57,1.26-0.76c0.79-0.34,0.8-1.36,1.56-1.65
			c0.62-0.23,1.36-0.01,1.95-0.51c0.47-0.39,1.1-0.43,1.7-0.33c0.98,0.16,1.95,0.18,2.95,0.16c2.84-0.06,5.32,1.87,6.07,4.57
			c0.08,0.28,0.18,0.55,0.25,0.83c0.24,0.97,0.12,1.91-0.36,2.79c-0.23,0.43-0.47,0.84-0.74,1.25c-0.66,0.98-1.05,2.04-1.21,3.21
			c-0.31,2.19-0.67,4.38-1.09,6.55c-0.35,1.79-0.73,3.58-1.27,5.33c-0.37,1.21-0.71,2.39-0.83,3.65c-0.07,0.66-0.28,1.31-0.47,1.95
			c-0.39,1.3-0.63,2.6-0.76,3.96c-0.28,2.77-0.67,5.54-1.09,8.3c-0.74,4.85-1.51,9.69-1.88,14.58c-0.19,2.49-0.28,4.98-0.5,7.47
			c-0.13,1.47,0.13,2.87,0.51,4.27c0.23,0.83,0.39,1.7,0.75,2.48c0.89,1.95,0.33,3.79-0.41,5.57c-0.32,0.77-0.97,1.44-1.54,2.09
			c-0.4,0.46-1.04,0.59-1.63,0.58c-1.08-0.02-2.18-0.03-3.24-0.23c-1.91-0.36-3.45-1.26-4.41-3.05c-0.59-1.11-1.27-2.16-1.64-3.37
			c-0.36-1.19-0.63-2.44-1.59-3.37c-0.56-1.53-1.46-2.95-1.54-4.63c-0.02-0.38-0.09-0.76-0.08-1.14
			C276.36,82.76,276.41,81.42,276.46,80.07L276.46,80.07L276.46,80.07z"/>
		<path class="st0" d="M328.67,69.56c0.01,0.04-0.01,0.24,0.06,0.41c0.24,0.56,0.3,1.12-0.03,1.66c-0.93,1.5-1.37,3.19-1.97,4.81
			c-0.69,1.86-1.79,3.4-3.34,4.66c-0.08,0.06-0.15,0.12-0.23,0.18c-3.08,2.4-3.88,2.73-7.74,3.25c-2.45,0.33-4.89,0.66-7.33,1.03
			c-1.38,0.21-2.64,0.63-3.68,1.67c-0.68,0.68-1.69,0.94-2.73,0.93c-1.16,0-2.14-0.38-2.93-1.17c-0.62-0.62-1.17-1.3-1.75-1.96
			c-0.06-0.07-0.13-0.16-0.15-0.25c-0.21-1.34-0.96-2.54-1.22-3.84c-0.31-1.59-0.48-3.25-0.34-4.85c0.18-2.09,0.12-4.24,0.77-6.28
			c0.04-1.57,0.43-3.03,1.46-4.29c0.68-2.1,2-3.97,2.28-6.22c0.11-0.89,1.1-1.66,2.1-1.77c0.88-0.1,1.77-0.16,2.66-0.14
			c1.36,0.04,2.53,0.43,3.07,1.82c0.1,0.27,0.27,0.51,0.41,0.77c0.43,0.74,1.17,1.05,2,0.75c2.88-1.02,5.75-2.07,8.61-3.12
			c0.38-0.14,0.67-0.44,0.72-0.85c0.12-0.92,0.76-1.31,1.58-1.47c0.68-0.14,1.37-0.18,2.05-0.3c0.28-0.05,0.64-0.1,0.81-0.28
			c0.61-0.64,1.4-0.64,2.19-0.67c0.79-0.03,1.58-0.03,2.37-0.04c1.16-0.01,2.09,0.52,2.92,1.24c0.29,0.25,0.51,0.58,0.78,0.87
			c1.13,1.22,1.25,2.5,0.49,3.98c-0.57,1.11-0.88,2.34-1.36,3.5C330.41,65.55,329.56,67.49,328.67,69.56L328.67,69.56L328.67,69.56z
			 M307.62,78.24c0.55-0.11,1.44-0.23,2.29-0.45c2.21-0.58,4.25-1.57,6.36-2.41c0.67-0.27,1.2-0.71,1.56-1.29
			c0.51-0.82,1-1.67,1.39-2.54c0.4-0.88,0.6-1.84,1.01-2.71c0.34-0.71,0.58-1.4,0.65-2.19c0.08-0.85,0.4-1.67,0.59-2.52
			c0.1-0.47-0.48-0.95-0.94-0.82c-1.13,0.33-2.27,0.66-3.4,1c-0.28,0.09-0.58,0.18-0.81,0.35c-0.65,0.5-1.42,0.64-2.17,0.9
			c-1.02,0.36-2.08,0.71-2.98,1.28c-0.82,0.52-1.59,1.11-2.49,1.53c-0.73,0.34-1.25,0.91-1.62,1.63c-0.35,0.69-0.72,1.35-0.77,2.16
			c-0.04,0.66-0.25,1.32-0.38,1.97c-0.15,0.75-0.31,1.51-0.44,2.26c-0.15,0.88,0.6,1.75,1.51,1.79
			C307.09,78.21,307.19,78.22,307.62,78.24L307.62,78.24L307.62,78.24z"/>
		<path class="st0" d="M320.74,94.86c0.07-0.36,0.09-0.65,0.18-0.92c0.24-0.67,0.19-1.31-0.1-1.96c-0.28-0.65-0.29-1.3,0.06-1.95
			c0.57-1.04,0.68-2.21,0.89-3.34c0.07-0.38,0.09-0.77,0.1-1.15c0.03-1.91,1.13-3,2.88-3.6c0.28-0.1,0.57-0.16,0.86-0.24
			c1.62-0.49,3.11-0.36,4.45,0.79c0.43,0.37,0.98,0.64,1.52,0.88c0.86,0.38,1.47,0.94,1.71,1.86c0.09,0.37,0.59,0.65,0.9,0.59
			c0.68-0.13,1.37-0.24,2.03-0.43c0.85-0.24,1.7-0.52,2.52-0.85c3.13-1.26,6.41-1.95,9.74-2.5c1.07-0.18,2.12-0.47,3.18-0.71
			c0.29-0.06,0.57-0.15,0.87-0.2c2.54-0.41,5.08-0.85,7.63-1.22c2.64-0.38,5.31-0.62,7.94-1.04c2.35-0.37,4.7-0.67,7.07-0.8
			c0.69-0.04,1.38-0.17,2.05-0.36c0.97-0.27,1.96-0.29,2.94-0.29c2.18-0.01,4.35,0.21,6.5,0.53c0.61,0.09,1.11,0.4,1.46,0.91
			c0.33,0.48,0.7,0.94,1.01,1.43c0.76,1.2,0.69,2.06-0.27,3.16c-0.51,0.58-1.11,1.02-1.9,1.32c-2.34,0.87-4.79,1.16-7.25,1.43
			c-0.49,0.05-1,0.03-1.48,0.13c-3.21,0.62-6.43,1.1-9.66,1.6c-1.27,0.19-2.54,0.39-3.82,0.55c-4.32,0.53-8.66,0.91-12.99,1.42
			c-0.98,0.12-1.96,0.3-2.92,0.54c-2.01,0.5-4.02,1.03-6.01,1.6c-2.27,0.65-4.58,1.23-6.78,2.06c-2.02,0.76-3.93,1.79-5.88,2.73
			c-0.34,0.17-0.65,0.44-0.92,0.71c-0.54,0.56-1.02,1.18-1.57,1.73c-1.12,1.12-2.63,1.4-4.08,0.72c-0.53-0.24-1-0.61-1.48-0.93
			c-0.6-0.4-0.95-0.96-1.04-1.67C320.97,96.51,320.84,95.66,320.74,94.86L320.74,94.86L320.74,94.86z"/>
		<path class="st0" d="M337.23,72.87c0.07-0.85,0.11-1.04,0.09-1.23c-0.2-3.22,0.61-6.29,1.45-9.36c0.1-0.37,0.26-0.73,0.33-1.11
			c0.47-2.58,1.57-4.95,2.56-7.36c0.54-1.34,1.22-2.63,1.59-4.03c0.18-0.68,0.65-1.17,1.12-1.67c0.44-0.47,0.97-0.61,1.6-0.55
			c2.41,0.24,6.02,2.53,7.11,4.72c0.79,1.57,1.21,3.28,0.36,5c-1.77,3.56-2.85,7.36-4.34,11.02c-0.51,1.26-1.03,2.5-1.85,3.6
			c-0.53,0.71-0.92,1.47-1.27,2.27c-0.34,0.8-0.75,1.56-1.13,2.34c-0.3,0.61-0.63,1.2-0.87,1.83c-0.95,2.42-0.65,2.07-3.35,2.58
			c-0.83,0.15-1.53-0.26-2.09-0.87c-0.62-0.68-0.91-1.5-0.99-2.37C337.4,75.87,337.31,74.04,337.23,72.87L337.23,72.87L337.23,72.87
			z"/>
	</g>
	<g>
		<g>
			<path class="st0" d="M295.4,130.06c-0.54-0.52-1.19-0.92-1.99-1.03c-1.17-0.16-2.37-0.24-3.56-0.33
				c-0.23-0.02-0.49,0.06-0.73,0.11c-0.65,0.14-1.28,0.37-1.9,0.66c-1.39,0.65-2.84,1.05-4.31,1.37c-0.18,0.04-0.5-0.21-0.47-0.37
				c0.15-0.84,0.28-1.69,0.49-2.53c0.39-1.54,0.8-3.07,1.1-4.61c0.34-1.78,0.95-3.53,2.26-5.06c0.11-0.13,0.21-0.27,0.29-0.41
				c0.33-0.6,0.46-1.2,0.31-1.81c-0.27-1.04-0.86-1.84-1.82-2.4c-1.03-0.6-2.29-0.86-3.2-1.65c-0.12-0.11-0.46-0.03-0.69,0
				c-0.16,0.02-0.32,0.12-0.46,0.22c-0.85,0.58-1.7,0.69-2.57,0.39c-0.14-0.05-0.34-0.07-0.49,0c-0.74,0.33-1.21,0.84-1.15,1.66
				c0.03,0.45,0.03,0.93-0.12,1.37c-0.4,1.13-0.88,2.25-1.37,3.37c-0.46,1.04-0.96,2.07-1.45,3.1c-0.56,1.18-1.14,2.35-1.68,3.53
				c-0.64,1.4-1.35,2.8-1.55,4.29c-0.05,0.38-0.17,0.77-0.31,1.15c-0.82,2.22-1,4.46-1.32,6.7c-0.04,0.31-0.05,0.62-0.05,0.92
				c0.05,2.44,0.14,4.87,0.15,7.31c0,1.66,0.19,3.25,0.69,4.76c0.01,0.03,0.03,0.06,0.04,0.09c-0.25,0.47-0.51,0.93-0.79,1.37
				c-1.43,2.27-2.92,4.5-4.36,6.76c-0.68,1.06-1.33,2.15-1.96,3.24c-0.75,1.3-1.54,2.58-2.17,3.94c-0.36,0.77-0.45,1.67-0.64,2.51
				c-0.12,0.54-0.24,1.08-0.32,1.63c-0.05,0.39-0.08,0.79-0.04,1.18c0.14,1.49,0.78,2.71,2.04,3.57c0.59,0.4,1.16,0.81,1.73,1.24
				c0.4,0.3,0.85,0.42,1.33,0.4c0.39-0.02,0.84,0.03,1.16-0.14c0.65-0.35,1.36-0.38,2.04-0.57c1.15-0.33,2.22-0.81,3.2-1.5
				c1.1-0.78,2.22-1.51,3.33-2.27c0.59-0.4,1.17-0.81,1.73-1.25c1.08-0.83,1.93-1.87,2.62-3.03c1.36-2.31,1.78-4.87,1.9-7.5
				c0.02-0.47,0.02-0.95-0.05-1.42c-0.16-1.02-0.37-2.06-1.18-2.78c-1.29-1.14-2.38-2.56-4.12-3.1c-0.06-0.02-0.09-0.07-0.11-0.14
				c1.16-0.71,1.94-1.69,2.08-1.87c0.02-0.01,0.03-0.02,0.05-0.04l-0.03-0.01c0.01-1.48,0.37-2.92,1.08-4.31
				c0.41-0.81,0.98-1.56,1.83-2.05c1.77-1.03,3.56-2.02,5.44-2.8c1.31-0.54,2.66-0.96,3.88-1.78c0.48-0.32,1.08-0.48,1.63-0.7
				c0.55-0.22,1.12-0.4,1.65-0.67c0.37-0.19,0.74-0.45,1-0.76c1.56-1.78,2.33-3.8,2.61-5.92
				C296.19,131.32,295.95,130.6,295.4,130.06z M273.31,163.95c-1.67,2.62-3.88,4.71-6.43,6.46c-0.16,0.11-0.45,0.07-0.66,0.04
				c-0.23-0.04-0.49-0.5-0.47-0.75c0.01-0.23-0.01-0.48,0.06-0.7c0.23-0.75,0.43-1.52,0.73-2.24c1.1-2.6,2.32-5.15,3.73-7.61
				c0.23-0.4,0.56-0.74,0.87-1.09c0.2-0.23,0.58-0.25,0.87-0.14c1.13,0.42,1.81,1.21,2,2.41c0.05,0.31,0.08,0.62,0.11,0.87
				C274.04,162.23,273.82,163.15,273.31,163.95z"/>
		</g>
		<path class="st0" d="M410.95,132.52c-0.34-0.42-0.57-0.7-0.79-0.99c-0.61-0.81-1.21-1.64-2.18-2.14
			c-0.23-0.12-0.39-0.45-0.43-0.72c-0.09-0.59-0.18-1.21-0.08-1.81c0.11-0.66,0.06-1.18-0.34-1.69c-0.21-0.26-0.26-0.69-0.25-1.06
			c0.02-0.56-0.1-1.03-0.34-1.5c-0.15-0.29,0.07-0.59,0.33-0.83c0.31-0.28,0.63-0.55,0.95-0.83c0.2-0.97,1-1.25,1.83-1.51
			c3.22-0.99,6.34-2.32,9.45-3.66c2.1-0.9,4.26-1.61,6.46-2.11c0.49-0.11,0.97-0.26,1.45-0.4c0.81-0.23,1.62-0.39,2.42-0.59
			c2.37-0.6,4.73-0.84,7.1-1.1c1.55-0.17,3.09-0.16,4.59,0.02c0.79,0.09,1.56,0.22,2.35,0.31c0.94,0.11,1.93,0.07,2.76,0.51
			c1.02-0.04,1.79,0.45,2.66,0.75c0.87,0.29,1.68,0.7,2.69,0.7c0.45,0,0.89,0.24,1.27,0.46c0.47,0.27,0.79,0.67,0.79,1.26
			c0,0.53,0,1.07-0.01,1.61c-0.01,0.56-0.2,1.06-0.62,1.54c-0.34,0.38-0.62,0.79-0.92,1.19c-0.21,0.28-0.33,0.59-0.24,0.89
			c0.13,0.46,0.08,0.87-0.25,1.33c-0.39,0.55-0.75,1.11-1.44,1.37c-2.37,0.88-4.68,2.01-7.12,2.63c-1.13,0.29-2.26,0.56-3.41,0.74
			c-1.46,0.23-2.93,0.5-4.4,0.73c-0.71,0.11-1.19,0.63-1.26,1.32c-0.02,0.15-0.02,0.31,0,0.46c0.07,0.38,0.02,0.75-0.1,1.14
			c-0.2,0.61-0.39,1.23-0.49,1.84c-0.28,1.7-0.79,3.36-1.53,4.99c-0.17,0.37-0.35,0.77-0.35,1.13c-0.02,0.67-0.31,1.2-0.8,1.71
			c-0.61,0.63-0.85,1.44-1.11,2.17c-0.49,1.36-1.07,2.69-1.69,4.02c-0.24,0.53-0.36,1.07-0.21,1.59c0.03,0.1,0.25,0.24,0.33,0.2
			c0.92-0.41,1.88-0.77,2.75-1.28c1.46-0.87,2.87-1.85,4.3-2.78c0.5-0.32,1.02-0.62,1.53-0.92c0.44-0.26,0.94-0.45,1.33-0.77
			c1.41-1.14,3.08-1.81,4.6-2.74c1.46-0.88,2.91-1.8,4.41-2.6c1.88-1,3.81-1.89,5.71-2.83c0.61-0.3,1.22-0.6,1.82-0.94
			c2.15-1.22,2.13-0.75,2.56-3.21c0.14-0.83,0.27-1.7,0.77-2.5c0.46-2,1.23-3.97,1.45-5.99c0.03-0.31,0.05-0.63,0.17-0.92
			c1.16-2.85,2.03-5.76,3.49-8.53c0.69-1.31,1.22-2.66,1.55-4.05c0.11-0.45,0.26-0.93,0.5-1.35c0.77-1.34,2.05-2,3.5-2.25
			c0.64-0.11,1.3-0.04,1.94-0.02c0.23,0.01,0.51,0.06,0.65,0.2c0.7,0.68,1.82,0.73,2.56,1.4c0.47,0.42,1.23,0.57,1.87,0.81
			c0.52,0.19,0.98,0.48,1.25,0.91c0.69,1.12,1.61,2.07,2.24,3.25c0.77,1.44,0.81,2.97,0.31,4.63c-0.21,0.69-0.45,1.37-0.68,2.06
			c-0.15,0.46-0.33,0.91-0.48,1.37c-0.46,1.36-0.52,2.75-0.99,4.13c-0.44,1.27-0.5,2.61-0.71,3.93c-0.04,0.23,0,0.46,0.01,0.68
			c0,0.17,0.37,0.31,0.57,0.22c0.54-0.24,1.08-0.47,1.61-0.73c1.68-0.84,3.38-1.59,5.12-2.26c0.16-0.06,0.32-0.12,0.47-0.19
			c0.73-0.33,1.28-0.81,1.6-1.53c1.92-4.4,3.85-8.8,4.83-13.38c0.17-0.8,0.61-1.5,1.01-2.21c0.81-1.45,1.87-2.75,3.24-3.83
			c1.75-1.38,3.72-2.09,5.82-2.09c0.79,0,1.59,0.18,2.28,0.47c0.65,0.28,1.3,0.44,2.04,0.44c0.6,0,1.06,0.24,1.43,0.62
			c0.31,0.32,0.61,0.64,0.9,0.97c0.26,0.28,0.35,0.64,0.32,1.03c-0.06,0.85-0.22,1.7-0.53,2.54c-0.11,0.3-0.3,0.59-0.37,0.9
			c-0.15,0.61-0.18,1.23-0.38,1.83c-0.2,0.6-0.62,1.16-0.84,1.76c-0.58,1.59-1.18,3.18-1.62,4.79c-0.64,2.3-1.43,4.57-2.18,6.86
			c-0.26,0.78-0.75,1.45-1.01,2.21c-0.65,1.9-1.48,3.76-2.07,5.67c-0.64,2.07-1.64,4.05-2.39,6.09c-0.64,1.74-1.18,3.5-1.71,5.25
			c-0.18,0.61-0.37,1.2-0.67,1.8c-0.33,0.65-0.48,1.36-0.74,2.03c-0.66,1.73-1.3,3.47-1.67,5.25c-0.1,0.46-0.27,0.92-0.46,1.37
			c-1.12,2.7-1.96,5.45-2.79,8.19c-0.16,0.54-0.33,1.08-0.42,1.61c-0.31,1.78-0.92,3.53-1.38,5.29c-0.74,2.83-1.49,5.68-1.45,8.54
			c0.02,1.44-0.18,2.93-0.46,4.39c-0.36,1.87-0.39,3.7-0.39,5.53c0,2.14-0.11,4.29,0.01,6.41c0.06,1.07,0.2,2.11,0.78,2.99
			c0.34,0.51,0.45,1.09,0.33,1.72c-0.28,1.5-0.03,2.89,0.33,4.27c0.26,1,0.58,1.99,0.62,3.07c0.03,0.75,0.2,1.48,0.06,2.27
			c-0.06,0.37,0.03,0.75,0.09,1.12c0.08,0.48-0.06,0.96-0.4,1.33c-0.58,0.66-0.98,1.32-0.92,2.14c0.03,0.32-0.18,0.63-0.47,0.82
			c-0.71,0.47-1.43,0.9-2.29,1.43c-0.4,0.74-1.03,1.53-1.36,2.45c-0.4,1.13-1.27,1.92-2.3,2.59c-0.2,0.13-0.48,0.21-0.7,0.21
			c-0.57,0.01-1.13-0.01-1.69-0.06c-0.65-0.06-1.2-0.31-1.64-0.73c-0.54-0.51-1.03-1.04-1.33-1.73c-0.41-0.95-0.83-1.88-1.27-2.81
			c-0.25-0.53-0.55-1.03-0.83-1.54c-0.14-0.26-0.33-0.49-0.43-0.76c-0.25-0.69-0.31-1.5-0.72-2.07c-0.43-0.6-0.74-1.26-1.11-1.88
			c-0.23-0.39-0.31-0.84-0.2-1.31c0.25-1.03,0.1-1.98-0.15-2.93c-0.13-0.49-0.17-1.05-0.08-1.58c0.15-0.87,0.11-1.68-0.02-2.5
			c-0.2-1.25-0.16-2.56-0.29-3.84c-0.18-1.72-0.22-3.48-0.28-5.23c-0.04-1.06-0.09-2.13-0.01-3.21c0.17-2.31,0.32-4.61,0.41-6.92
			c0.07-1.68,0.31-3.39,0.55-5.09c0.44-3.16,0.91-6.33,1.43-9.49c0.18-1.08,0.52-2.15,0.81-3.23c0.12-0.46,0.37-0.91,0.44-1.37
			c0.57-3.57,1.9-7.06,2.75-10.6c0.11-0.45,0.34-0.9,0.52-1.35c0.47-1.12,0.95-2.24,1.17-3.42c0.16-0.86,0.58-1.67,1.01-2.46
			c0.3-0.55,0.29-1.06,0.26-1.59c-0.02-0.42-0.42-0.68-0.8-0.53c-0.16,0.07-0.31,0.13-0.47,0.21c-0.92,0.45-1.85,0.85-2.84,1.07
			c-0.7,0.16-1.19,0.59-1.39,1.3c-0.54,1.83-1.08,3.66-1.51,5.51c-0.36,1.54-0.88,3.07-1.46,4.57c-0.38,0.99-1.14,1.82-2.09,2.45
			c-0.28,0.18-0.61,0.33-0.93,0.38c-1.55,0.26-3.1,0.51-4.66,0.72c-0.67,0.09-1.29-0.05-1.82-0.37c-0.45-0.27-0.91-0.53-1.32-0.85
			c-0.23-0.17-0.45-0.42-0.52-0.69c-0.28-1.1-1-1.96-1.36-3.01c-0.36-1.05-0.67-2.1-1.2-3.08c-0.27-0.49-0.27-1.16-0.28-1.76
			c-0.01-1.83-0.23-3.62-0.14-5.47c0.01-0.29-0.09-0.58-0.21-0.85c-0.04-0.1-0.26-0.18-0.39-0.15c-0.32,0.08-0.65,0.17-0.93,0.34
			c-1.15,0.74-2.26,1.52-3.4,2.28c-1.64,1.08-3.29,2.14-4.92,3.23c-0.99,0.66-1.95,1.38-2.92,2.07c-2.09,1.48-4.17,2.96-6.28,4.42
			c-0.99,0.68-1.9,1.44-2.8,2.23c-1.41,1.24-2.86,2.43-4.5,3.35c-0.81,0.46-1.68,0.81-2.53,1.2c-1.61,0.74-3.08,0.48-4.45-0.07
			c-1.59-0.64-2.07-1.19-2.71-2.74c-0.19-0.47-0.43-0.96-0.45-1.47c-0.03-0.72-0.28-1.28-0.67-1.83c-0.15-0.21-0.22-0.58-0.13-0.85
			c0.21-0.66,0.12-1.23-0.12-1.78c-0.36-0.81-0.21-1.61,0.29-2.44c0.64-1.07,1.16-2.17,1.54-3.32c0.15-0.45,0.4-0.89,0.63-1.33
			c2.18-4.23,4.71-8.31,7.52-12.26c0.92-1.29,1.92-2.53,2.87-3.81c0.09-0.12,0.12-0.31,0.1-0.44c-0.02-0.13-0.12-0.27-0.23-0.34
			c-0.12-0.07-0.3-0.11-0.45-0.08c-1.46,0.31-2.94,0.55-4.38,0.97c-2.13,0.61-4.01,1.8-5.82,3.1c-0.62,0.45-1.23,0.92-1.86,1.36
			c-0.36,0.26-0.77,0.35-1.18,0.33c-0.97-0.04-1.91-0.18-2.7-0.66C412.67,132.97,411.87,132.69,410.95,132.52L410.95,132.52
			L410.95,132.52z"/>
		<path class="st0" d="M506.3,142.76c0.83,0,1.48,0.01,2.13,0c0.32,0,0.69,0.05,0.97-0.09c1.49-0.75,3.07-0.5,4.59-0.99
			c1.52-0.48,3.08-0.78,4.62-1.12c0.81-0.18,1.64-0.28,2.45-0.36c1.88-0.18,3.75-0.71,5.63-0.82c0.48-0.03,0.98-0.2,1.46-0.32
			c0.28-0.07,0.58-0.42,0.63-0.71c0.01-0.08,0.03-0.16,0.03-0.23c0-2,0.95-3.81,2-5.61c0.5-0.85,0.98-1.72,1.51-2.56
			c0.31-0.49,0.71-0.93,1.04-1.4c0.24-0.33,0.45-0.69,0.63-1.05c0.05-0.11-0.01-0.31-0.1-0.4c-0.45-0.46-1.11-0.62-1.74-0.42
			c-1.06,0.33-2.12,0.31-3.16,0.59c-0.89,0.24-1.75,0.6-2.62,0.92c-0.64,0.23-1.26,0.5-1.9,0.69c-1.29,0.4-2.52,0.94-3.69,1.67
			c-0.57,0.35-1.18,0.62-1.84,0.82c-0.78,0.24-1.54,0.71-2.24,1.2c-1.15,0.81-2.46,1.12-3.72,1.61c-0.29,0.11-0.65,0.07-0.96,0.04
			c-0.55-0.06-1.08-0.22-1.64-0.24c-0.83-0.03-1.5-0.37-2.19-0.67c-0.57-0.25-1-0.66-1.28-1.18c-0.42-0.77-0.78-1.58-1.23-2.33
			c-0.35-0.6-0.43-1.28-0.29-1.97c0.2-1,0.53-1.99,0.8-2.98c1.02-1.57,1.42-3.27,1.86-4.96c0.16-0.61,0.32-1.23,0.48-1.87
			c0.48-0.59,1.44-0.54,1.82-1.27c1.14-0.8,2.33-1.41,3.71-1.36c0.81,0.03,1.62-0.12,2.44-0.31c1.87-0.43,3.74-0.82,5.61-1.21
			c2.03-0.43,4.08-0.69,6.06-1.5c0.3-0.12,0.64-0.11,0.97-0.14c0.73-0.07,1.46-0.11,2.2-0.18c1.88-0.18,3.75-0.37,5.63-0.54
			c1.4-0.12,2.75,0.05,4.06,0.29c1.07,0.2,2.16,0.41,3.13,0.86c0.76,0.35,1.57,0.57,2.5,0.53c0.76-0.03,1.39,0.29,1.73,0.92
			c0.36,0.67,0.95,1.11,1.53,1.56c1.34,1.03,2.1,2.43,2.48,4.06c0.18,0.8,0.42,1.59,0.45,2.42c0.04,1.38-0.1,2.77-1.07,4.06
			c-0.56,0.73-1.12,1.47-1.71,2.18c-0.2,0.25-0.48,0.47-0.74,0.67c-0.34,0.26-0.69,0.5-1.05,0.73c-1.45,0.92-2.72,2.05-3.95,3.21
			c-0.62,0.59-1.26,1.14-1.96,1.63c-0.28,0.2-0.57,0.4-0.79,0.64c-0.5,0.54-1.32,1.08-0.99,1.8c0.25,0.57,1.09,0.46,1.72,0.4
			c2.04-0.2,4.07-0.23,6.12-0.59c1.46-0.25,2.94-0.37,4.4-0.45c2.69-0.14,5.38-0.41,8.08-0.79c1.22-0.17,2.45-0.22,3.67-0.49
			c0.4-0.09,0.82-0.08,1.22-0.08c1.87-0.03,3.73-0.04,5.59-0.08c0.81-0.02,1.62-0.05,2.43-0.16c0.74-0.09,1.48-0.27,2.11,0.12
			c0.96,0.05,1.92,0.13,2.89,0.13c1.38,0.01,2.73,0.11,4.06,0.29c1.72,0.24,3.47,0.37,5.2,0.57c0.63,0.07,1.24,0.21,1.86,0.33
			c1.93,0.38,3.85,0.75,5.77,1.14c0.76,0.16,1.51,0.38,2.24,0.61c0.2,0.06,0.42,0.23,0.5,0.41c0.45,1.11,1.15,2.03,2,2.86
			c0.38,0.37,1.11,2.21,1.19,2.81c0.09,0.68,0.1,1.36-0.35,2.04c-0.18,0.28-0.31,0.58-0.48,0.87c-0.26,0.45-0.35,0.93-0.17,1.34
			c0.25,0.58,0.27,1.13-0.09,1.76c-0.23,0.41,0.05,0.72,0.14,1.08c0.03,0.11-0.05,0.34-0.15,0.41c-0.35,0.24-0.72,0.5-1.1,0.62
			c-1.77,0.55-3.56,0.92-5.34,1.29c-0.55,0.11-1.14,0.07-1.68-0.01c-1.49-0.21-2.99-0.39-4.43-0.72c-1.99-0.45-4.04-0.72-6.1-0.9
			c-2.85-0.25-5.67-0.71-8.61-0.54c-0.4,0.02-0.81,0.01-1.2-0.04c-2.04-0.26-4.11-0.43-6.03-1.05c-0.44-0.14-0.91-0.24-1.38-0.27
			c-1.91-0.13-3.79-0.43-5.78-0.18c-0.81,0.1-1.62,0.02-2.43,0.04c-1.05,0.02-2.09,0-3.16,0.25c-1.14,0.27-2.27,0.13-3.39,0.04
			c-0.64-0.05-1.28-0.07-1.92-0.08c-0.32-0.01-0.69,0.28-0.76,0.55c-0.02,0.08-0.07,0.15-0.08,0.22c-0.31,2.25-1.03,4.46-1.88,6.64
			c-0.06,0.15-0.13,0.31-0.15,0.46c-0.24,1.71-0.94,3.37-1.4,5.05c-0.32,1.15-0.76,2.28-1.14,3.42c-0.49,1.44-1.09,2.88-1.26,4.35
			c-0.2,1.68-0.98,3.2-1.91,4.68c-1.37,2.17-3.96,2.96-5.93,1.65c-0.25-0.17-0.46-0.38-0.71-0.54c-0.18-0.12-0.39-0.28-0.6-0.28
			c-1.36,0.01-1.97-1.03-2.89-1.62c-0.69-0.45-1-1.22-1.31-1.98c-0.58-1.45-0.82-2.98-1.03-4.55c-0.21-1.58,0.1-3.02,0.92-4.51
			c0.71-1.3,1.28-2.65,2.03-3.93c1.17-2.01,2.09-4.08,2.91-6.19c0.14-0.37,0.45-0.69,0.43-1.11c-0.01-0.18-0.2-0.45-0.4-0.44
			c-2.28,0.1-4.56,0.43-6.85,0.79c-0.41,0.07-0.82,0.16-1.22,0.19c-3.52,0.26-7.02,1.08-10.52,1.75c-1.14,0.22-2.28,0.47-3.42,0.51
			c-1.25,0.04-2.43,0.39-3.56,1.09c-0.5,0.31-1.07,0.52-1.6,0.8c-0.97,0.49-1.9,0.51-2.86,0.29c-1.91-0.43-3.07-1.51-3.52-3.33
			c-0.18-0.73-0.22-1.48-0.24-2.24c0-0.15-0.02-0.32,0.04-0.46c0.54-1.26,0.73-2.6,1.72-3.75c0.66-0.77,1.08-1.65,1.31-2.6
			c0.18-0.73,0.51-0.97,1.19-1.07c0.24-0.03,0.5-0.08,0.73-0.07c0.71,0.04,1.28-0.3,1.83-0.74
			C505.96,142.97,506.11,142.89,506.3,142.76L506.3,142.76L506.3,142.76z"/>
		<path class="st0" d="M200.93,120.35c2.38-0.05,4.22,0.16,6.13-0.3c0.23-0.06,0.49-0.04,0.72-0.02c0.79,0.08,1.57,0.19,2.36,0.27
			c0.32,0.04,0.66,0.1,0.81,0.35c0.29,0.48,0.83,0.61,1.31,0.83c1.38,0.63,1.84,1.83,2.06,3.2c0.04,0.22,0.02,0.46,0,0.68
			c-0.11,1.02-1.2,3.16-2.06,3.83c-1.91,1.5-3.25,3.42-4.68,5.27c-0.26,0.33-0.51,0.63-0.83,0.92c-1.39,1.26-2.57,2.69-3.74,4.13
			c-0.37,0.45-0.63,0.97-0.92,1.47c-0.17,0.29-0.02,0.84,0.3,0.98c0.9,0.4,1.78,0.86,2.74,1.14c1.5,0.44,2.79,1.2,4.16,1.83
			c0.55,0.25,1.03,0.58,1.71,0.6c0.31,0.01,0.6,0.15,0.9,0.24c1.05,0.32,1.48,1.27,1.03,2.31c-0.26,0.6-0.52,1.19-0.84,1.77
			c-0.46,0.85-1.18,1.39-2.15,1.63c-1.32,0.34-2.59,0.46-3.82,0.01c-0.79-0.29-1.66-0.4-2.49-0.61c-0.22-0.06-0.44-0.14-0.63-0.26
			c-1.03-0.61-2.07-1.21-3.07-1.85c-0.56-0.36-1.06-0.81-1.61-1.18c-0.24-0.16-0.53-0.27-0.83-0.34c-0.31-0.06-0.68,0-0.91,0.29
			c-1.58,1.96-3.16,3.92-4.69,5.91c-0.56,0.72-0.98,1.53-1.44,2.31c-0.31,0.52-0.74,0.91-1.24,1.25c-0.69,0.47-1.42,0.58-2.11,0.33
			c-1.53-0.54-2.07-1.48-1.89-3.12c0.12-1.15,0.26-2.31,0.34-3.46c0.16-2.19,0.8-4.31,1.91-6.37c1.41-2.61,2.89-5.18,4.64-7.63
			c0.92-1.28,2.03-2.46,3.04-3.7c0.14-0.17,0.19-0.42,0.26-0.63c0.01-0.04-0.1-0.11-0.16-0.13c-0.07-0.02-0.17-0.03-0.24,0
			c-1.24,0.57-2.54,0.88-3.82,1.26c-1.93,0.58-3.82,1.34-5.67,2.19c-0.69,0.32-1.36,0.7-1.99,1.13c-0.43,0.29-0.87,0.52-1.32,0.75
			c-0.45,0.23-0.89,0.5-1.29,0.81c-1.09,0.85-2.31,1.45-3.52,2.06c-1.56,0.79-3.06,0.71-4.53,0.35c-0.72-0.17-1.17-0.67-1.42-1.31
			c-0.44-1.11-0.75-2.28-0.43-3.54c0.4-1.59,0.18-3.05-0.02-4.54c-0.05-0.37-0.1-0.74-0.12-1.12c-0.03-0.75,0.67-1.56,1.48-1.74
			c0.16-0.03,0.33-0.04,0.49-0.03c0.92,0.06,1.78-0.29,2.63-0.7c1.53-0.74,3.06-1.47,4.59-2.21c0.23-0.11,0.45-0.25,0.68-0.34
			c3.39-1.32,6.78-2.64,10.26-3.57c1.13-0.3,2.26-0.63,3.4-0.89c1.79-0.41,3.59-0.61,5.37-0.58
			C200.33,120.3,200.88,120.35,200.93,120.35L200.93,120.35L200.93,120.35z"/>
		<path class="st0" d="M227.07,115.97c0.96-0.2,1.69-0.3,2.41-0.52c0.84-0.25,1.61-0.24,2.4-0.12c1.66,0.25,2.59,1.18,2.86,2.72
			c0.12,0.68,0.02,1.37-0.39,2.04c-0.35,0.56-0.64,1.15-1.16,1.62c-0.66,0.59-1.03,1.33-1.25,2.1c-0.84,2.98-2.23,5.87-3.11,8.84
			c-0.14,0.46-0.35,0.9-0.57,1.34c-0.26,0.53-0.33,1.06-0.36,1.6c-0.03,0.42,0.28,0.64,0.78,0.54c0.33-0.06,0.68-0.07,0.97-0.22
			c1.34-0.67,2.74-0.68,4.11-0.94c1.22-0.24,2.44-0.18,3.63-0.02c1.67,0.23,2.72,1.5,2.56,3.12c-0.02,0.23-0.08,0.47-0.2,0.68
			c-0.35,0.65-0.69,1.31-1.11,1.93c-0.56,0.83-1.2,1.61-1.78,2.43c-0.42,0.6-0.98,0.89-1.68,1.02c-2.69,0.49-5.35,1.25-8.01,2.03
			c-0.08,0.02-0.17,0.03-0.24,0.07c-0.99,0.46-2.05,0.83-2.96,1.43c-1.06,0.71-0.83,1.88-1.07,2.84c-1.26,4.85-2.08,9.71-2.56,14.58
			c-0.15,1.54-0.2,3.08-0.14,4.59c0.06,1.21,0.41,2.36,0.55,3.55c0.21,1.79,0.72,3.51,0.76,5.34c0.01,0.23,0.02,0.46,0.1,0.67
			c0.69,1.8,0.78,3.79,1.35,5.63c0.13,0.42,0.17,0.88,0.23,1.33c0.07,0.53,0.06,1.09-0.24,1.6c-0.41,0.69-0.42,1.35-0.41,2.04
			c0.02,0.8-0.25,1.1-1.11,1.41c-0.56,0.2-1.12,0.36-1.73,0.56c-1.8-0.47-2.99-1.66-3.85-3.13c-0.71-1.2-1.34-2.43-2.57-3.27
			c0.09-0.57,0.19-1.1,0.25-1.63c0.05-0.46,0.07-0.92,0.1-1.38c0.02-0.31,0.11-0.64,0.04-0.91c-0.22-0.81-0.15-1.63,0.04-2.5
			c0.12-0.52,0.05-1.07,0.01-1.59c-0.16-1.81-0.37-3.6-0.51-5.41c-0.28-3.47-0.17-7,0-10.54c0.04-0.85,0.14-1.7,0.24-2.55
			c0.32-2.55,0.59-5.1,0.99-7.64c0.33-2.08,0.76-4.17,1.24-6.24c0.64-2.77,1.27-5.55,2.08-8.29c1.02-3.43,2.12-6.85,3.48-10.23
			c1.11-2.77,2.46-5.49,3.43-8.3c0.14-0.4,0.41-0.72,0.74-0.99C225.96,116.77,226.52,116.38,227.07,115.97L227.07,115.97
			L227.07,115.97z"/>
		<path class="st0" d="M242.52,125.89c1.05,0.11,2.14-0.22,3.23-0.55c2.17-0.67,4.35-1.33,6.53-1.97c0.63-0.18,1.23-0.38,1.78-0.82
			c0.28-0.22,0.6-0.22,0.91-0.2c0.22,0.01,0.52,0.04,0.68-0.09c1-0.79,2.11-0.77,3.2-0.98c0.4-0.08,0.79-0.09,1.14,0.06
			c1.16,0.5,2.43,0.71,3.74,0.81c0.3,0.02,0.6,0.1,0.93,0.16c0.25,0.33,0.51,0.67,0.78,1.01c0.27,0.34,0.54,0.68,0.81,1.02
			c0.38,0.48,0.5,1.01,0.29,1.71c-0.32,1.02-0.65,2-1.25,2.94c-0.4,0.63-0.68,1.33-0.95,2.01c-0.52,1.31-1.23,2.53-2.07,3.69
			c-0.49,0.68-0.94,1.38-1.38,2.02c-0.09,1.06,0.58,1.78,0.5,2.77c-0.11,0.19-0.24,0.4-0.35,0.62c-0.37,0.69-0.91,1.11-1.63,1.48
			c-1.21,0.61-2.46,0.92-3.7,1.25c-0.87,0.23-1.68,0.62-2.53,0.89c-0.65,0.21-1.16,0.69-1.39,1.35c-0.59,1.71-1.49,3.3-2.33,4.92
			c-0.05,0.11,0,0.31,0.08,0.4c0.08,0.09,0.26,0.15,0.4,0.14c0.23-0.02,0.48-0.08,0.7-0.19c2.31-1.14,4.67-2.12,7.03-3.07
			c1.36-0.55,2.66-1.36,4.11-1.6c0.29-0.05,0.6-0.26,0.87-0.45c0.57-0.4,1.2-0.58,1.81-0.75c0.82-0.23,1.57-0.16,2.08,0.5
			c0.18,0.23,0.4,0.41,0.62,0.63c-0.13,0.96-0.68,1.68-1.48,2.2c-1.05,0.68-2.13,1.33-3.23,1.91c-2.06,1.09-4.1,2.19-6.07,3.48
			c-1.38,0.91-2.86,1.68-4.39,2.33c-1.36,0.58-2.66,1.39-3.85,2.33c-0.42,0.33-0.8,0.56-1.29,0.65c-0.3,0.06-0.63,0.22-0.87,0.42
			c-0.78,0.65-1.65,0.72-2.5,0.75c-0.83,0.03-1.5-0.31-1.86-1.01c-0.34-0.65-0.61-1.34-0.83-2.05c-0.32-1.06-0.11-2.16,0.51-3.21
			c0.38-0.65,0.72-1.29,1-1.98c0.24-0.6,0.69-1.13,1.05-1.7c0.09-0.15-0.07-0.53-0.24-0.56c-0.3-0.05-0.6-0.09-0.9-0.13
			c-1.01-0.14-1.83-0.56-2.45-1.34c-0.58-0.75-1.09-1.53-1.5-2.36c0.27-0.79,0.79-1.34,1.32-1.87c0.17-0.17,0.4-0.37,0.61-0.42
			c1.75-0.39,3.35-1.36,5.03-1.98c1.08-0.39,2.13-0.86,3.24-1.08c0.39-0.08,0.78-0.21,1.17-0.36c0.69-0.26,1.35-0.54,2.09-0.6
			c0.74-0.05,1.58-1,1.55-1.72c-0.03-0.86,0.17-1.72,0.21-2.57c0.05-1.1,0.19-2.19,0.5-3.29c0.06-0.22,0.01-0.46,0.01-0.69
			c-0.01-0.29-0.39-0.54-0.65-0.42c-0.74,0.36-1.49,0.71-2.22,1.1c-1.25,0.66-2.47,1.39-3.73,2.03c-1.38,0.69-2.79,0.88-4.15,0.47
			c-0.28-0.08-0.59-0.2-0.77-0.41c-1.03-1.18-1.74-2.51-1.47-4.3C241.18,127.86,241.28,127.62,242.52,125.89L242.52,125.89
			L242.52,125.89z"/>
		<path class="st0" d="M332.97,152.62c0.26-0.92,0.51-1.84,0.78-2.76c0.27-0.92,0.51-1.84,0.85-2.75c0.32-0.86,0.26-1.48-0.55-1.93
			c-0.65-0.36-1.24-0.83-1.8-1.31c-0.28-0.23-0.48-0.55-0.65-0.87c-0.29-0.54-0.34-1.14-0.01-1.77c1-1.88,0.71-2.2,3.53-2.62
			c0.57-0.09,1.15-0.18,1.71-0.16c1.21,0.04,2.26-0.47,3.27-1.14c0.2-0.13,0.4-0.36,0.47-0.57c0.41-1.22,0.56-2.44,0.49-3.65
			c-0.02-0.29-0.31-0.57-0.61-0.54c-1.14,0.1-2.28,0.16-3.41,0.34c-0.73,0.12-1.45,0.36-2.19,0.49c-0.72,0.13-1.35,0.68-2.14,0.7
			c-0.28,0.01-0.59,0.32-0.9,0.44c-0.87,0.34-1.57,1.05-2.49,1.26c-1.15,0.91-2.47,1.03-3.77,1.19c-1.75,0.22-1.79,0.07-2.6-1.27
			c-0.46-0.78-0.59-1.71-0.42-2.62c0.19-1.05,0.93-1.9,2.06-2.34c0.39-0.15,0.8-0.26,1.21-0.33c2.07-0.35,4.01-1.25,5.94-2.11
			c1.47-0.65,2.97-1.17,4.49-1.54c1.61-0.39,3.22-0.87,4.87-0.92c0.62-0.02,1.31-0.27,1.92-0.55c0.74-0.34,1.45-0.39,2.17-0.31
			c1.11,0.12,2.21,0.26,3.3,0.44c0.79,0.13,1.46,0.48,2.04,0.96c0.17,0.14,0.34,0.31,0.4,0.51c0.29,0.92,0.55,1.83,0.05,2.89
			c-0.94,1.99-1.53,4.07-2.56,6.03c-0.24,0.46-0.3,0.91-0.23,1.36c0.07,0.44,0.21,0.87,0.22,1.32c0.02,0.88-0.29,1.69-1.08,2.35
			c-0.92,0.76-1.84,1.51-2.67,2.37c-0.33,0.35-0.85,0.54-1.28,0.82c-0.43,0.28-0.88,0.54-1.27,0.86c-0.25,0.21-0.5,0.49-0.61,0.78
			c-0.65,1.65-1.27,3.31-1.89,4.97c-0.05,0.14-0.02,0.32,0.04,0.44c0.06,0.11,0.22,0.25,0.32,0.23c1.29-0.31,2.59-0.6,3.87-0.98
			c1.44-0.43,2.86-1.01,4.31-1.4c1.43-0.39,2.66-1.05,3.68-2.16c0.38-0.41,0.84-0.55,1.35-0.47c0.39,0.06,0.8,0.05,1.18,0.15
			c0.2,0.05,0.38,0.23,0.5,0.4c0.4,0.59,0.41,1.22,0.03,1.95c-0.43,0.83-0.96,1.56-1.79,2.06c-1.24,0.75-2.46,1.55-3.74,2.19
			c-1.67,0.83-3.41,1.5-5.15,2.17c-2.04,0.79-4.07,1.66-5.98,2.8c-1.18,0.7-2.39,0.74-3.51,0.28c-0.58-0.24-0.96-0.71-1.17-1.28
			C333.01,155.66,332.58,154.25,332.97,152.62L332.97,152.62L332.97,152.62z"/>
		<path class="st0" d="M381.34,149.74c0.79,0.62,1.6,1.26,2.43,1.89c0.44,0.33,0.98,0.41,1.58,0.23c0.56-0.16,1.13-0.31,1.68-0.53
			c0.2-0.08,0.46-0.35,0.48-0.53c0.19-1.69,0.34-3.38,0.49-5.07c0.01-0.15-0.05-0.29-0.07-0.44c-0.04-0.27-0.45-0.48-0.73-0.38
			c-0.24,0.09-0.49,0.15-0.71,0.27c-1.59,0.8-3.19,1.57-4.89,2.08c-0.97,0.29-1.86,0.72-2.59,1.54c-0.59,0.66-1.48,0.8-2.3,0.87
			c-0.31,0.03-0.65-0.05-0.9-0.19c-0.73-0.39-1.45-0.79-2.12-1.26c-0.61-0.42-1.15-0.92-1.65-1.32c-0.16-0.59-0.22-1.12-0.45-1.56
			c-0.2-0.38-0.59-0.64-0.87-0.98c-0.27-0.31-0.17-0.71,0.21-1.02c0.33-0.27,0.68-0.53,1.11-0.59c2.31-0.3,4.53-1.06,6.76-1.84
			c2.7-0.94,5.4-1.88,8.12-2.77c1.11-0.37,2.25-0.67,3.39-0.92c1.48-0.33,2.89-0.8,4.18-1.71c0.49-0.35,1.05-0.52,1.65-0.51
			c1.05,0.02,2.1-0.13,3.16-0.32c1.13-0.2,2.27-0.12,3.4-0.13c0.5,0,0.95,0.49,1,1.04c0.04,0.47-0.04,0.93-0.49,1.28
			c-0.4,0.31-0.83,0.59-1.26,0.86c-0.79,0.51-1.59,0.99-2.37,1.51c-0.44,0.29-0.72,0.68-0.81,1.19c-0.28,1.57-1.15,3-1.88,4.45
			c-0.73,1.46-1.62,2.86-2.44,4.29c-0.3,0.53-0.09,0.98,0.46,0.98c0.4,0,0.81,0,1.21-0.05c1.06-0.14,2.12-0.31,3.18-0.47
			c2.55-0.39,5.04-0.31,7.51-0.15c0.38,0.03,0.77,0.18,1.06,0.39c0.6,0.43,1.13,0.94,1.73,1.45c-0.1,0.46-0.24,0.92-0.29,1.37
			c-0.09,0.84-0.61,1.25-1.43,1.51c-0.55,0.18-1.11,0.43-1.6,0.75c-0.9,0.57-1.85,0.82-2.84,0.92c-0.98,0.11-1.96,0.25-2.93,0.3
			c-2.05,0.11-4.08,0.5-6.11,0.99c-2.52,0.6-5.05,0.9-7.56,1.5c-0.39,0.09-0.81-0.02-1.21,0.06c-0.81,0.16-1.63,0.35-2.42,0.61
			c-0.58,0.18-1.13,0.23-1.7,0.23c-0.7,0-1.19-0.3-1.6-0.75c-0.5-0.56-0.78-1.24-0.82-2.01c-0.05-0.98,0.13-2-0.16-2.94
			c-0.06-0.19,0.06-0.45,0.12-0.67c0.11-0.46,0.25-0.92,0.33-1.37c0.09-0.49,0.32-0.89,0.74-1.24
			C380.46,150.27,380.76,149.82,381.34,149.74L381.34,149.74L381.34,149.74z"/>
		<path class="st0" d="M348.28,142.99c-0.03-0.25-0.05-0.4-0.06-0.55c-0.05-1.35-0.04-1.32,1.38-1.75c1.12-0.34,2.28-0.65,3.31-1.21
			c1.51-0.82,3.11-1.32,4.65-2c1.4-0.62,2.77-1.29,4.09-2.08c1.06-0.64,1.86-1.47,2.4-2.53c1.76-3.43,3.74-6.75,5.98-9.97
			c0.85-1.21,1.42-2.59,2.03-3.91c0.32-0.69,0.73-1.28,1.32-1.79c0.4-0.35,0.84-0.58,1.36-0.54c0.16,0.01,0.32,0.02,0.48,0.03
			c0.56,0.01,1.13-0.44,1.68-0.23c0.64,0.24,1.29,0.48,1.89,0.79c0.81,0.41,1.07,1.18,1.1,2.04c0.01,0.22-0.05,0.47-0.16,0.68
			c-0.22,0.44-0.4,0.94-0.75,1.27c-1.58,1.46-2.11,3.33-2.91,5.09c-0.84,1.85-1.56,3.72-2.5,5.54c-0.68,1.31-1.2,2.66-1.82,3.99
			c-0.69,1.48-1.38,2.95-2.12,4.41c-0.59,1.17-1.11,2.35-1.42,3.59c-0.32,1.31-0.71,2.6-1.02,3.91c-0.29,1.24-0.43,2.46-0.04,3.63
			c0.11,0.33,0.11,0.76,0,1.12c-0.39,1.31-0.5,2.62-0.69,3.93c-0.08,0.54-0.2,1.08-0.34,1.61c-0.22,0.88-0.67,1.64-1.59,2.13
			c-0.3,0.16-0.56,0.39-0.83,0.59c-0.93,0.69-1.89,0.69-2.8,0.4c-0.58-0.19-1.11-0.5-1.58-0.85c-0.35-0.25-0.65-0.61-0.84-0.99
			c-0.36-0.72-0.6-1.51-0.6-2.36c0-1.14,0.07-2.29,0.11-3.44c0.02-0.53,0.06-1.07,0.09-1.61c0.02-0.38-0.02-0.78,0.1-1.15
			c0.66-2.13,0.81-4.3,1.6-6.42c0.31-0.82,0.4-1.68,0.57-2.53c0.06-0.29-0.36-0.55-0.64-0.4c-0.45,0.23-0.95,0.41-1.35,0.7
			c-0.84,0.61-1.74,1.05-2.69,1.43c-0.55,0.22-1.04,0.58-1.58,0.84c-0.77,0.38-1.56,0.58-2.4,0.65c-0.89,0.08-1.59-0.17-2.15-0.66
			C349.05,143.96,348.66,143.42,348.28,142.99L348.28,142.99L348.28,142.99z"/>
		<path class="st0" d="M325.59,153.29c-1.62-0.32-3.36-0.12-5.01-0.34c-1.17-0.16-2.41-0.1-3.62-0.14c-0.08,0-0.17-0.01-0.24,0.02
			c-1.38,0.51-2.75,0.27-4.13,0.48c-0.76,0.12-1.43,0.46-2.14,0.69c-0.63,0.2-1.22-0.17-1.91,0.09c-1.82,0.68-3.66,1.26-5.49,1.94
			c-1.9,0.7-3.78,1.49-5.68,2.19c-2.3,0.84-4.62,1.61-6.93,2.41c-0.4,0.14-0.81,0.32-1.2,0.33c-0.73,0.03-1.46,0.57-2.17,0.29
			c-0.67-0.26-1-0.89-1.38-1.39c-0.54-0.7-0.72-1.62-0.44-2.58c0.18-0.61,0.47-1.2,0.76-1.79c0.09-0.18,0.36-0.38,0.57-0.44
			c0.4-0.12,0.81-0.11,1.22-0.21c0.4-0.1,0.81-0.21,1.18-0.4c1.06-0.57,2.17-0.89,3.29-1.23c0.56-0.17,1.13-0.32,1.68-0.53
			c1.11-0.41,2.22-0.81,3.35-1.13c1.45-0.42,2.87-0.97,4.3-1.43c3.36-1.1,6.74-2.06,10.13-3.02c1.85-0.53,3.71-1.04,5.58-1.47
			c1.05-0.24,2.12-0.11,3.14-0.63c0.21-0.11,0.49-0.08,0.73-0.07c2.49,0.1,4.99,0.09,7.4,0.58c1.62,0.33,2.57,1.22,3.23,2.49
			c0.57,1.11,0.13,2.22-0.66,3.29c-0.09,0.13-0.24,0.25-0.38,0.32c-0.75,0.4-1.49,0.82-2.26,1.17
			C327.55,153.21,326.58,153.39,325.59,153.29L325.59,153.29L325.59,153.29z"/>
		<path class="st0" d="M310.7,133.98c0.91,0.76,1.94,1.17,3.18,1.25c0.95,0.06,1.89,0.22,2.82,0.37c0.54,0.09,1.07,0.23,1.57,0.41
			c0.6,0.22,0.97,0.66,1.18,1.24c0.18,0.52-0.23,1.38-0.79,1.6c-0.24,0.09-0.47,0.18-0.71,0.26c-0.96,0.31-1.95,0.4-2.88,0.89
			c-0.14,0.07-0.33,0.11-0.47,0.09c-1.27-0.24-2.58,0.25-3.87,0.26c-0.83,0-1.6-0.02-2.29-0.38c-0.46-0.24-0.99-0.34-1.43-0.58
			c-1.8,1.7-3.13,3.49-3.95,5.55c-0.15,0.38-0.36,0.71-0.61,1.05c-0.6,0.8-1.17,1.62-1.72,2.45c-0.48,0.73-1.08,1.24-1.96,1.49
			c-0.8,0.23-1.59,0.56-2.38,0.83c-0.68,0.23-1.56,0-1.92-0.5c-0.57-0.78-0.93-1.67-1.02-2.65c-0.08-0.82-0.09-1.67-0.02-2.51
			c0.11-1.39,0.39-2.75,1.34-4.02c0.65-0.86,1.15-1.82,1.72-2.72c1.25-1.98,2.82-3.73,4.53-5.4c0.91-0.89,1.85-1.74,2.76-2.64
			c0.35-0.35,0.64-0.76,0.95-1.16c0.41-0.53,0.8-1.07,1.2-1.59c0.38-0.49,0.83-0.83,1.47-0.87c0.32-0.02,0.71-0.04,0.95-0.21
			c0.91-0.68,1.68-0.59,2.46-0.11c0.25,0.16,0.55,0.25,0.83,0.38c0.2,0.1,0.44,0.17,0.58,0.32c0.59,0.67,1.01,1.42,1.05,2.37
			c0.04,0.97-0.37,1.84-1.04,2.63c-0.38,0.45-0.83,0.85-1.22,1.29C310.84,133.55,310.79,133.79,310.7,133.98L310.7,133.98
			L310.7,133.98z"/>
		<path class="st0" d="M390.31,122.08c0.14,0.03,0.63,0.12,1.1,0.25c0.58,0.16,1.14,0.36,1.7,0.55c0.99,0.33,1.73,0.89,2.01,1.89
			c0.15,0.54,0.57,0.69,1.19,0.53c0.41-0.11,0.85-0.19,1.26-0.18c1.12,0.01,1.8,0.85,1.66,1.9c-0.13,0.93-0.57,1.69-1.22,2.5
			c-1.39,1.73-3.06,3.11-4.88,4.39c-1.57,1.11-3.28,1.78-5.04,2.37c-0.1,0.03-0.21,0.06-0.31,0.08c-2.4,0.61-3.73-0.52-4.14-2.59
			c-0.09-0.47-0.04-0.98-0.05-1.48c-0.02-1.48,0-2.96-0.06-4.44c-0.12-2.77,1.84-4.24,3.61-5.17
			C387.95,122.24,388.97,122.07,390.31,122.08L390.31,122.08L390.31,122.08z M389.96,131.47c0.91-0.15,1.82-0.69,2.49-1.62
			c0.45-0.63,0.32-1.63-0.25-2.16c-0.46-0.43-1.4-0.46-2.03-0.05c-1,0.64-1.54,1.51-1.67,2.57
			C388.4,130.89,389.08,131.58,389.96,131.47L389.96,131.47L389.96,131.47z"/>
	</g>
	<g>
		<path class="st0" d="M327.21,178.07c-0.09-0.1-0.2-0.18-0.32-0.24c-0.24-0.11-0.56-0.12-0.81-0.01c-0.13,0.05-0.24,0.13-0.33,0.23
			c-0.09,0.09-0.16,0.21-0.22,0.34c-0.05,0.13-0.08,0.27-0.08,0.43c0,0.14,0.03,0.28,0.08,0.41c0.05,0.13,0.13,0.25,0.22,0.35
			c0.09,0.1,0.2,0.19,0.32,0.25c0.13,0.07,0.26,0.1,0.41,0.1c0.15,0,0.29-0.03,0.42-0.09c0.12-0.06,0.23-0.14,0.32-0.24
			c0.09-0.1,0.16-0.22,0.21-0.35c0.04-0.13,0.07-0.27,0.07-0.41c0-0.14-0.02-0.28-0.07-0.41
			C327.37,178.28,327.3,178.16,327.21,178.07L327.21,178.07z"/>
		<path class="st0" d="M334.71,178.07c-0.09-0.1-0.2-0.18-0.32-0.24c-0.24-0.11-0.56-0.12-0.81-0.01c-0.13,0.05-0.24,0.13-0.33,0.23
			c-0.09,0.09-0.16,0.21-0.22,0.34c-0.05,0.13-0.08,0.27-0.08,0.43c0,0.14,0.03,0.28,0.08,0.41c0.05,0.13,0.13,0.25,0.22,0.35
			c0.09,0.1,0.2,0.19,0.32,0.25c0.13,0.07,0.26,0.1,0.41,0.1c0.15,0,0.29-0.03,0.42-0.09c0.12-0.06,0.23-0.14,0.32-0.24
			c0.09-0.1,0.16-0.22,0.21-0.35c0.04-0.13,0.07-0.27,0.07-0.41c0-0.14-0.02-0.28-0.07-0.41
			C334.87,178.28,334.8,178.16,334.71,178.07L334.71,178.07z"/>
		<polygon class="st0" points="280.32,182.32 276.46,182.32 276.46,177.69 274.5,177.69 274.5,188.54 276.46,188.54 276.46,183.92 
			280.32,183.92 280.32,188.54 282.28,188.54 282.28,177.69 280.32,177.69 280.32,182.32 		"/>
		<path class="st0" d="M289.83,187.19c-0.08,0.02-0.17,0.03-0.26,0.05c-0.08,0.01-0.14,0.02-0.17,0.02c-0.08,0-0.14-0.01-0.19-0.03
			c-0.04-0.02-0.07-0.04-0.1-0.09c-0.03-0.05-0.05-0.11-0.07-0.21c-0.02-0.1-0.02-0.23-0.02-0.38v-3.27c0-0.41-0.08-0.78-0.25-1.09
			c-0.16-0.3-0.38-0.56-0.66-0.75c-0.27-0.19-0.58-0.34-0.93-0.43c-0.34-0.09-0.71-0.14-1.08-0.14c-0.55,0-1.09,0.1-1.59,0.3
			c-0.5,0.2-0.94,0.49-1.31,0.84l-0.08,0.07l1.01,1.24l0.09-0.09c0.19-0.19,0.36-0.35,0.51-0.47c0.15-0.12,0.3-0.22,0.43-0.29
			c0.13-0.07,0.27-0.12,0.4-0.15c0.3-0.06,0.65-0.06,0.91,0.03c0.14,0.05,0.26,0.12,0.36,0.21c0.1,0.1,0.18,0.22,0.23,0.38
			c0.06,0.16,0.09,0.35,0.09,0.58v0.15c-0.32,0-0.64,0.02-0.95,0.05c-0.35,0.03-0.68,0.09-1,0.17c-0.32,0.08-0.61,0.19-0.88,0.32
			c-0.27,0.14-0.51,0.32-0.71,0.53c-0.2,0.21-0.36,0.47-0.47,0.77c-0.11,0.29-0.17,0.64-0.17,1.03c0,0.35,0.05,0.66,0.15,0.92
			c0.1,0.27,0.24,0.49,0.42,0.67c0.18,0.18,0.41,0.32,0.67,0.41c0.41,0.14,0.92,0.17,1.44,0.09c0.2-0.03,0.4-0.08,0.6-0.15
			c0.2-0.07,0.4-0.17,0.59-0.29c0.15-0.09,0.29-0.2,0.43-0.32c0.08,0.23,0.21,0.41,0.4,0.55c0.23,0.17,0.52,0.26,0.86,0.26
			c0.18,0,0.34-0.02,0.48-0.04c0.15-0.03,0.28-0.06,0.41-0.11c0.12-0.04,0.24-0.1,0.35-0.16c0.11-0.06,0.21-0.13,0.32-0.19
			l0.07-0.04l-0.22-0.97L289.83,187.19L289.83,187.19z M287.15,184.73v2.03c-0.12,0.08-0.23,0.16-0.35,0.21
			c-0.13,0.06-0.25,0.12-0.38,0.15c-0.12,0.04-0.25,0.06-0.36,0.07c-0.24,0.03-0.48,0.04-0.67-0.03c-0.09-0.03-0.17-0.07-0.23-0.14
			c-0.07-0.07-0.12-0.16-0.15-0.27c-0.04-0.12-0.06-0.27-0.06-0.46c0-0.22,0.03-0.43,0.1-0.61c0.06-0.18,0.18-0.33,0.35-0.46
			c0.17-0.14,0.41-0.25,0.7-0.34C286.37,184.8,286.73,184.75,287.15,184.73L287.15,184.73z"/>
		<path class="st0" d="M296.35,182.05c-0.23-0.35-0.54-0.64-0.93-0.85c-0.38-0.21-0.87-0.32-1.43-0.32c-0.22,0-0.43,0.02-0.61,0.07
			c-0.18,0.05-0.34,0.11-0.49,0.18s-0.28,0.16-0.4,0.26c-0.06,0.05-0.11,0.09-0.17,0.14c-0.01-0.05-0.02-0.11-0.03-0.16
			c-0.03-0.13-0.06-0.23-0.09-0.3l-0.03-0.07h-1.77l0.04,0.14c0.03,0.1,0.05,0.23,0.06,0.37c0.01,0.15,0.03,0.29,0.03,0.42
			c0.01,0.14,0.01,0.26,0.01,0.37c0,0.11,0,0.17,0,0.2v9.12h1.87v-3.29c0.39,0.27,0.82,0.41,1.3,0.41c0.55,0,1.03-0.11,1.44-0.34
			c0.41-0.22,0.75-0.53,1.02-0.9c0.27-0.37,0.47-0.81,0.6-1.3c0.13-0.48,0.2-1,0.2-1.52c0-0.48-0.05-0.96-0.14-1.41
			C296.74,182.8,296.57,182.4,296.35,182.05L296.35,182.05z M295.02,184.64c0,0.32-0.03,0.64-0.08,0.95
			c-0.05,0.3-0.13,0.58-0.24,0.82c-0.11,0.23-0.24,0.42-0.41,0.56c-0.16,0.13-0.34,0.2-0.57,0.2c-0.12,0-0.25,0-0.36-0.01
			c-0.11,0-0.22-0.02-0.33-0.04c-0.11-0.03-0.21-0.06-0.32-0.11c-0.09-0.04-0.18-0.1-0.27-0.18v-4.07c0.2-0.11,0.38-0.19,0.56-0.24
			c0.42-0.12,0.92-0.12,1.25,0.08c0.18,0.11,0.32,0.25,0.44,0.44c0.11,0.19,0.2,0.43,0.26,0.7
			C294.99,184.01,295.02,184.31,295.02,184.64L295.02,184.64z"/>
		<path class="st0" d="M304.38,184.67c0-0.48-0.05-0.96-0.15-1.41c-0.1-0.46-0.26-0.86-0.49-1.21c-0.23-0.35-0.54-0.64-0.93-0.85
			c-0.39-0.21-0.87-0.32-1.43-0.32c-0.22,0-0.42,0.02-0.61,0.07c-0.18,0.05-0.34,0.11-0.49,0.18c-0.14,0.07-0.28,0.16-0.4,0.26
			c-0.06,0.05-0.11,0.09-0.17,0.14c-0.01-0.05-0.02-0.11-0.03-0.16c-0.03-0.13-0.06-0.23-0.09-0.3l-0.03-0.07h-1.77l0.04,0.14
			c0.03,0.1,0.05,0.23,0.06,0.37c0.01,0.15,0.02,0.29,0.03,0.42c0.01,0.14,0.01,0.26,0.01,0.37c0,0.11,0,0.17,0,0.2v9.12h1.87v-3.29
			c0.39,0.27,0.82,0.41,1.3,0.41c0.55,0,1.03-0.11,1.44-0.34c0.41-0.22,0.75-0.53,1.02-0.9c0.26-0.37,0.47-0.81,0.6-1.3
			C304.31,185.71,304.38,185.19,304.38,184.67L304.38,184.67z M302.42,184.64c0,0.33-0.03,0.64-0.08,0.95
			c-0.05,0.3-0.13,0.58-0.24,0.82c-0.11,0.23-0.24,0.42-0.41,0.56c-0.16,0.13-0.35,0.2-0.57,0.2c-0.12,0-0.25,0-0.36-0.01
			c-0.11,0-0.22-0.02-0.33-0.04c-0.11-0.02-0.21-0.06-0.32-0.11c-0.09-0.04-0.18-0.1-0.27-0.18v-4.07c0.2-0.11,0.38-0.19,0.56-0.24
			c0.42-0.12,0.92-0.12,1.25,0.08c0.18,0.11,0.32,0.25,0.44,0.44c0.11,0.19,0.2,0.43,0.26,0.7
			C302.39,184.01,302.42,184.31,302.42,184.64L302.42,184.64z"/>
		<path class="st0" d="M307.94,186.09l-1.48-5.1h-2.04l2.64,6.97c-0.01,0.09-0.03,0.18-0.05,0.28c-0.03,0.1-0.05,0.19-0.08,0.26
			c-0.09,0.27-0.18,0.51-0.27,0.72c-0.09,0.2-0.19,0.38-0.29,0.51c-0.1,0.13-0.2,0.23-0.32,0.29c-0.19,0.11-0.43,0.11-0.71,0.07
			c-0.12-0.02-0.23-0.03-0.35-0.06c-0.11-0.02-0.21-0.05-0.31-0.08c-0.09-0.03-0.17-0.06-0.23-0.08l-0.12-0.05l-0.37,1.28l0.07,0.05
			c0.22,0.15,0.48,0.28,0.77,0.38c0.29,0.1,0.61,0.16,0.94,0.16c0.41,0,0.77-0.06,1.05-0.18c0.28-0.12,0.54-0.3,0.75-0.53
			c0.21-0.23,0.4-0.51,0.56-0.84c0.15-0.32,0.32-0.69,0.49-1.11l2.69-7.88l0.05-0.15h-2.04L307.94,186.09L307.94,186.09z"/>
		<path class="st0" d="M323.43,185.77c-0.13,0.21-0.27,0.39-0.41,0.55c-0.13,0.16-0.28,0.29-0.44,0.39
			c-0.16,0.11-0.36,0.19-0.57,0.25c-0.22,0.06-0.49,0.09-0.79,0.09c-0.34,0-0.64-0.1-0.91-0.32c-0.28-0.22-0.52-0.52-0.72-0.91
			c-0.2-0.39-0.37-0.85-0.48-1.38c-0.11-0.53-0.17-1.11-0.17-1.73c0-0.47,0.05-0.93,0.14-1.36c0.09-0.43,0.24-0.82,0.43-1.16
			c0.19-0.33,0.44-0.6,0.73-0.8c0.29-0.2,0.64-0.3,1.05-0.3c0.21,0,0.4,0.02,0.57,0.05c0.17,0.03,0.33,0.09,0.49,0.17
			c0.15,0.08,0.31,0.18,0.45,0.3c0.15,0.12,0.3,0.27,0.45,0.44l0.09,0.11l1.09-1.46l-0.07-0.07c-0.21-0.22-0.44-0.42-0.67-0.58
			c-0.23-0.16-0.47-0.29-0.72-0.38c-0.25-0.09-0.51-0.16-0.79-0.2c-0.27-0.04-0.57-0.06-0.88-0.06c-0.51,0-0.99,0.07-1.41,0.22
			c-0.42,0.14-0.8,0.35-1.13,0.61c-0.33,0.26-0.62,0.57-0.86,0.92c-0.24,0.35-0.44,0.74-0.59,1.16c-0.15,0.42-0.27,0.86-0.34,1.33
			c-0.07,0.46-0.11,0.94-0.11,1.42c0,0.76,0.09,1.49,0.27,2.17c0.18,0.68,0.45,1.29,0.82,1.81c0.36,0.52,0.82,0.94,1.36,1.24
			c0.54,0.3,1.18,0.46,1.89,0.46c0.37,0,0.72-0.02,1.02-0.07c0.31-0.04,0.6-0.13,0.88-0.26c0.27-0.13,0.55-0.31,0.81-0.54
			c0.26-0.23,0.54-0.53,0.83-0.9l0.06-0.08l-1.3-1.23L323.43,185.77L323.43,185.77z"/>
		<polygon class="st0" points="325.54,188.54 327.4,188.54 327.4,180.99 325.54,180.99 325.54,188.54 		"/>
		<path class="st0" d="M332.25,186.86c-0.2,0.08-0.38,0.14-0.55,0.17c-0.27,0.05-0.49,0.08-0.64,0c-0.05-0.03-0.1-0.07-0.14-0.14
			c-0.04-0.08-0.08-0.18-0.1-0.3c-0.03-0.13-0.04-0.3-0.04-0.5v-3.62h1.51l0.18-1.49h-1.68v-1.89h-1.42l-0.43,1.92l-1.02,0.37v1.09
			h1v3.82c0,0.35,0.03,0.68,0.09,0.96c0.06,0.3,0.17,0.55,0.32,0.76c0.16,0.21,0.37,0.38,0.63,0.49c0.26,0.11,0.59,0.17,0.98,0.17
			c0.29,0,0.59-0.07,0.9-0.19c0.3-0.13,0.61-0.32,0.92-0.57l0.07-0.06l-0.46-1.04L332.25,186.86L332.25,186.86z"/>
		<polygon class="st0" points="333.03,188.54 334.9,188.54 334.9,180.99 333.03,180.99 333.03,188.54 		"/>
		<polygon class="st0" points="341.22,182.3 341.24,182.27 341.24,180.99 335.64,180.99 335.64,182.56 338.84,182.56 335.54,187.25 
			335.52,187.28 335.52,188.54 341.33,188.54 341.33,186.97 337.99,186.97 341.22,182.3 		"/>
		<path class="st0" d="M346.98,186.22c-0.15,0.2-0.29,0.36-0.42,0.49c-0.12,0.13-0.26,0.23-0.39,0.3c-0.13,0.08-0.28,0.13-0.44,0.16
			c-0.16,0.03-0.35,0.05-0.57,0.05c-0.24,0-0.44-0.07-0.63-0.2c-0.19-0.14-0.35-0.32-0.48-0.53c-0.13-0.21-0.23-0.44-0.3-0.69
			c-0.06-0.2-0.09-0.38-0.1-0.55h4.23l0.02-0.1c0.03-0.2,0.06-0.4,0.07-0.6c0.01-0.19,0.02-0.37,0.02-0.55
			c0-0.47-0.06-0.9-0.19-1.29c-0.13-0.39-0.32-0.72-0.57-0.99c-0.25-0.27-0.57-0.49-0.95-0.63c-0.37-0.14-0.81-0.22-1.3-0.22
			c-0.55,0-1.04,0.11-1.45,0.32c-0.41,0.21-0.76,0.49-1.03,0.85c-0.27,0.35-0.48,0.76-0.61,1.21c-0.13,0.45-0.2,0.93-0.2,1.43
			c0,0.51,0.06,1.02,0.19,1.49c0.13,0.48,0.33,0.91,0.6,1.29c0.27,0.37,0.63,0.68,1.05,0.9c0.43,0.22,0.95,0.34,1.54,0.34
			c0.27,0,0.54-0.02,0.79-0.05c0.26-0.03,0.51-0.1,0.76-0.2c0.25-0.1,0.5-0.24,0.75-0.43c0.25-0.19,0.51-0.44,0.77-0.74l0.07-0.08
			l-1.17-1.09L346.98,186.22L346.98,186.22z M344.29,182.56c0.15-0.09,0.36-0.13,0.6-0.13c0.26,0,0.46,0.05,0.61,0.15
			c0.15,0.1,0.26,0.23,0.34,0.38c0.08,0.16,0.14,0.33,0.16,0.52c0.02,0.16,0.03,0.31,0.04,0.46h-2.37c0.01-0.17,0.03-0.34,0.06-0.51
			c0.04-0.19,0.11-0.37,0.2-0.52C344.01,182.77,344.13,182.65,344.29,182.56L344.29,182.56z"/>
		<path class="st0" d="M354.69,181.59c-0.24-0.23-0.52-0.41-0.83-0.53c-0.51-0.2-1.13-0.24-1.67-0.11c-0.2,0.05-0.4,0.12-0.57,0.2
			c-0.17,0.08-0.34,0.17-0.49,0.28c-0.08,0.05-0.15,0.11-0.22,0.16c-0.01-0.07-0.02-0.13-0.04-0.19l-0.04-0.18
			c-0.01-0.06-0.03-0.11-0.04-0.15l-0.03-0.07H349l0.02,0.14c0.04,0.23,0.06,0.46,0.07,0.68c0.01,0.23,0.01,0.41,0.01,0.56v6.18
			h1.87v-5.71c0.09-0.05,0.2-0.1,0.31-0.14c0.14-0.05,0.27-0.1,0.41-0.14c0.14-0.04,0.27-0.07,0.4-0.09
			c0.35-0.05,0.63-0.03,0.86,0.05c0.14,0.05,0.25,0.13,0.35,0.24c0.1,0.11,0.17,0.26,0.22,0.45c0.05,0.19,0.08,0.43,0.08,0.72v4.63
			h1.87v-4.96c0-0.42-0.07-0.8-0.21-1.13C355.11,182.11,354.92,181.83,354.69,181.59L354.69,181.59z"/>
		<path class="st0" d="M361.55,185.19c-0.11-0.16-0.24-0.31-0.38-0.42c-0.14-0.12-0.28-0.21-0.42-0.29
			c-0.14-0.08-0.27-0.15-0.41-0.2c-0.12-0.05-0.23-0.09-0.32-0.13c-0.18-0.07-0.35-0.13-0.53-0.2c-0.18-0.07-0.36-0.13-0.53-0.2
			c-0.11-0.04-0.22-0.08-0.33-0.13c-0.1-0.04-0.19-0.1-0.27-0.15c-0.07-0.06-0.14-0.12-0.18-0.2c-0.04-0.07-0.07-0.15-0.07-0.25
			c0-0.1,0.02-0.19,0.05-0.27c0.03-0.08,0.08-0.16,0.15-0.22c0.07-0.06,0.16-0.12,0.27-0.16c0.11-0.04,0.25-0.06,0.42-0.06
			c0.2,0,0.38,0.02,0.53,0.06c0.15,0.04,0.29,0.09,0.42,0.17c0.13,0.08,0.26,0.17,0.37,0.27c0.12,0.11,0.25,0.23,0.37,0.37l0.1,0.11
			l0.87-1.45l-0.07-0.06c-0.36-0.32-0.77-0.55-1.21-0.68c-0.44-0.13-0.93-0.2-1.46-0.2c-0.34,0-0.67,0.04-0.98,0.13
			c-0.32,0.09-0.61,0.22-0.86,0.39c-0.26,0.17-0.46,0.39-0.62,0.65c-0.16,0.26-0.24,0.57-0.24,0.91c0,0.27,0.04,0.52,0.11,0.73
			c0.08,0.21,0.18,0.4,0.3,0.57c0.12,0.17,0.26,0.31,0.41,0.43c0.15,0.12,0.3,0.22,0.45,0.3c0.15,0.09,0.3,0.16,0.44,0.22
			c0.14,0.06,0.26,0.11,0.35,0.14c0.18,0.08,0.35,0.15,0.52,0.21c0.16,0.06,0.33,0.13,0.51,0.2c0.09,0.03,0.18,0.08,0.26,0.13
			c0.08,0.05,0.16,0.1,0.23,0.17c0.07,0.06,0.12,0.13,0.16,0.2c0.04,0.07,0.06,0.16,0.06,0.25c0,0.14-0.02,0.26-0.07,0.35
			c-0.05,0.1-0.12,0.18-0.2,0.24c-0.08,0.06-0.19,0.11-0.31,0.14c-0.13,0.03-0.26,0.05-0.41,0.05c-0.67,0-1.31-0.36-1.9-1.07
			l-0.09-0.11l-1.04,1.35l0.06,0.07c0.2,0.23,0.42,0.42,0.64,0.57c0.23,0.15,0.47,0.27,0.72,0.36c0.25,0.09,0.51,0.15,0.79,0.19
			c0.27,0.04,0.57,0.05,0.87,0.05c0.35,0,0.7-0.05,1.03-0.14c0.34-0.09,0.64-0.23,0.9-0.41c0.27-0.18,0.48-0.41,0.65-0.69
			c0.17-0.28,0.25-0.6,0.25-0.96c0-0.28-0.04-0.53-0.1-0.75C361.75,185.54,361.66,185.35,361.55,185.19L361.55,185.19z"/>
		<path class="st0" d="M376.05,185.13c0.28-0.47,0.51-0.92,0.68-1.34l0.07-0.16h-1.91l-0.03,0.07c-0.06,0.16-0.12,0.32-0.18,0.46
			c-0.06,0.15-0.12,0.29-0.19,0.43c-0.07,0.14-0.14,0.29-0.22,0.45c-0.06,0.11-0.12,0.23-0.2,0.35l-0.53-0.63
			c-0.22-0.26-0.44-0.52-0.66-0.79c-0.22-0.27-0.44-0.54-0.65-0.8c-0.18-0.23-0.36-0.45-0.53-0.66c0.24-0.14,0.47-0.29,0.7-0.45
			c0.27-0.19,0.5-0.41,0.71-0.65c0.21-0.24,0.37-0.51,0.49-0.81c0.12-0.3,0.18-0.64,0.17-1.02c0-0.36-0.07-0.68-0.2-0.95
			c-0.13-0.27-0.32-0.51-0.54-0.69c-0.23-0.18-0.5-0.32-0.8-0.41c-0.6-0.18-1.3-0.19-1.98,0.02c-0.34,0.1-0.65,0.26-0.93,0.47
			c-0.28,0.21-0.51,0.47-0.68,0.79c-0.18,0.32-0.27,0.69-0.27,1.1c0,0.26,0.04,0.51,0.11,0.75c0.07,0.24,0.17,0.47,0.29,0.69
			c0.12,0.22,0.25,0.43,0.4,0.62c0.12,0.15,0.24,0.3,0.37,0.44c-0.23,0.15-0.46,0.32-0.67,0.49c-0.25,0.2-0.48,0.44-0.67,0.69
			c-0.2,0.26-0.35,0.57-0.47,0.9c-0.11,0.33-0.17,0.73-0.17,1.17c0,0.48,0.08,0.91,0.23,1.3c0.15,0.38,0.38,0.71,0.67,0.98
			c0.29,0.27,0.65,0.47,1.06,0.62c0.41,0.14,0.88,0.21,1.39,0.21c0.64,0,1.22-0.1,1.72-0.29c0.46-0.18,0.87-0.41,1.2-0.69l0.63,0.72
			h2.5l-1.86-2.01C375.47,186.05,375.78,185.58,376.05,185.13L376.05,185.13z M371.67,187.16c-0.47,0.08-0.92,0.05-1.24-0.11
			c-0.2-0.1-0.37-0.23-0.5-0.4c-0.13-0.17-0.23-0.37-0.29-0.6c-0.06-0.23-0.09-0.47-0.09-0.72c0-0.24,0.03-0.45,0.08-0.64
			c0.05-0.18,0.12-0.35,0.21-0.49c0.08-0.15,0.18-0.28,0.28-0.39c0.08-0.08,0.15-0.17,0.22-0.25c0.21,0.24,0.41,0.49,0.61,0.73
			c0.22,0.28,0.44,0.56,0.66,0.84c0.22,0.28,0.44,0.56,0.66,0.84c0.2,0.24,0.41,0.49,0.63,0.72c-0.08,0.06-0.16,0.11-0.26,0.16
			c-0.14,0.07-0.29,0.13-0.45,0.19C372.02,187.09,371.84,187.13,371.67,187.16L371.67,187.16z M371.83,180.32
			c-0.05,0.16-0.13,0.3-0.22,0.43c-0.1,0.13-0.21,0.26-0.34,0.38c-0.11,0.1-0.22,0.2-0.33,0.31c-0.08-0.11-0.16-0.22-0.23-0.33
			c-0.09-0.13-0.17-0.27-0.24-0.42c-0.07-0.14-0.12-0.28-0.15-0.43c-0.04-0.15-0.05-0.31-0.05-0.48c0-0.16,0.02-0.31,0.07-0.43
			c0.05-0.12,0.11-0.23,0.2-0.31c0.08-0.08,0.18-0.15,0.29-0.19c0.11-0.04,0.24-0.07,0.37-0.07c0.09,0,0.17,0.02,0.26,0.05
			c0.08,0.03,0.16,0.08,0.22,0.15c0.07,0.07,0.12,0.18,0.17,0.3c0.05,0.13,0.07,0.29,0.07,0.49
			C371.91,179.99,371.88,180.17,371.83,180.32L371.83,180.32z"/>
		<path class="st0" d="M389.1,178.61c-0.31-0.29-0.71-0.52-1.18-0.68c-0.47-0.16-1.03-0.24-1.67-0.24h-2.92v10.85h1.96v-4.11h0.75
			c0.55,0,1.04-0.06,1.45-0.18c0.41-0.12,0.77-0.28,1.07-0.48c0.3-0.2,0.54-0.42,0.74-0.68c0.19-0.25,0.34-0.51,0.45-0.76
			c0.11-0.26,0.18-0.51,0.23-0.75c0.04-0.24,0.07-0.45,0.07-0.64c0-0.46-0.08-0.9-0.23-1.29
			C389.65,179.25,389.41,178.9,389.1,178.61L389.1,178.61z M385.29,179.29h0.81c0.38,0,0.7,0.05,0.95,0.14
			c0.25,0.09,0.45,0.21,0.6,0.37c0.15,0.15,0.26,0.33,0.33,0.53c0.07,0.21,0.1,0.43,0.1,0.67c0,0.3-0.05,0.56-0.15,0.79
			c-0.1,0.23-0.23,0.42-0.41,0.58c-0.18,0.16-0.39,0.28-0.64,0.36c-0.25,0.08-0.53,0.12-0.84,0.12l-0.76,0.01V179.29L385.29,179.29z
			"/>
		<path class="st0" d="M395.26,181.03c-0.07-0.03-0.17-0.07-0.29-0.1c-0.12-0.03-0.31-0.05-0.55-0.05c-0.2,0-0.41,0.05-0.63,0.15
			c-0.21,0.09-0.42,0.22-0.61,0.37c-0.19,0.15-0.37,0.33-0.52,0.52c-0.07,0.08-0.13,0.17-0.18,0.25c-0.04-0.37-0.09-0.73-0.15-1.08
			l-0.02-0.09h-1.68l0.02,0.13c0.01,0.05,0.01,0.13,0.02,0.23c0.01,0.1,0.01,0.22,0.01,0.34l0.01,0.42c0,0.09,0,0.17,0,0.23v6.2
			h1.88l-0.01-4.88c0.16-0.3,0.38-0.54,0.64-0.72c0.26-0.18,0.57-0.28,0.94-0.28c0.1,0,0.21,0.01,0.32,0.03
			c0.11,0.02,0.22,0.07,0.35,0.13l0.13,0.07l0.41-1.83L395.26,181.03L395.26,181.03z"/>
		<path class="st0" d="M401.46,182.04c-0.28-0.36-0.64-0.64-1.07-0.85c-0.43-0.21-0.95-0.31-1.54-0.31c-0.59,0-1.11,0.1-1.55,0.31
			c-0.44,0.2-0.81,0.49-1.1,0.84c-0.29,0.35-0.51,0.76-0.65,1.22c-0.14,0.46-0.21,0.95-0.21,1.46c0,0.6,0.08,1.15,0.23,1.64
			c0.15,0.49,0.38,0.92,0.68,1.27c0.3,0.35,0.68,0.63,1.12,0.82c0.44,0.19,0.95,0.29,1.52,0.29c0.52,0,1-0.11,1.42-0.31
			c0.42-0.21,0.78-0.49,1.07-0.84c0.29-0.35,0.52-0.77,0.67-1.24c0.15-0.47,0.23-0.98,0.23-1.5c0-0.54-0.07-1.06-0.2-1.53
			C401.95,182.81,401.74,182.39,401.46,182.04L401.46,182.04z M398.17,182.5c0.18-0.12,0.4-0.18,0.64-0.18
			c0.27,0,0.5,0.06,0.69,0.17c0.19,0.12,0.35,0.28,0.47,0.47c0.12,0.2,0.21,0.44,0.27,0.72c0.06,0.28,0.08,0.58,0.08,0.89
			c0,0.34-0.03,0.68-0.09,1c-0.06,0.32-0.15,0.62-0.28,0.87c-0.12,0.25-0.28,0.45-0.47,0.6c-0.18,0.15-0.4,0.22-0.65,0.22
			c-0.26,0-0.49-0.07-0.68-0.22c-0.19-0.15-0.36-0.35-0.48-0.58c-0.13-0.24-0.22-0.52-0.28-0.81c-0.06-0.3-0.09-0.6-0.09-0.89
			c0-0.36,0.03-0.69,0.1-0.99c0.07-0.3,0.16-0.56,0.29-0.78C397.82,182.79,397.98,182.62,398.17,182.5L398.17,182.5z"/>
		<path class="st0" d="M409.49,187.64c-0.03-0.21-0.04-0.38-0.04-0.49v-6.16h-1.87v5.65c-0.25,0.15-0.52,0.27-0.81,0.34
			c-0.32,0.08-0.64,0.12-0.94,0.12c-0.13,0-0.24-0.02-0.35-0.06c-0.1-0.03-0.19-0.09-0.27-0.17c-0.08-0.08-0.14-0.18-0.19-0.3
			c-0.05-0.13-0.07-0.28-0.07-0.46v-5.13h-1.87v5c0,0.36,0.04,0.71,0.12,1.03c0.08,0.33,0.22,0.61,0.41,0.86
			c0.19,0.24,0.45,0.44,0.77,0.58c0.31,0.14,0.71,0.21,1.18,0.21c0.19,0,0.39-0.02,0.59-0.07c0.2-0.05,0.41-0.12,0.61-0.2
			c0.2-0.09,0.4-0.19,0.58-0.31c0.12-0.08,0.24-0.16,0.35-0.25l0.05,0.22c0.02,0.09,0.04,0.17,0.06,0.25
			c0.02,0.08,0.03,0.13,0.04,0.16l0.03,0.08h1.77l-0.02-0.13C409.56,188.13,409.52,187.87,409.49,187.64L409.49,187.64z"/>
		<path class="st0" d="M417.25,187.78c-0.06-0.21-0.11-0.43-0.14-0.64c-0.04-0.21-0.06-0.42-0.08-0.64
			c-0.02-0.22-0.02-0.41-0.02-0.59v-8.21h-1.87v3.49c-0.12-0.07-0.26-0.13-0.42-0.18c-0.24-0.08-0.53-0.12-0.87-0.12
			c-0.53,0-1.02,0.11-1.44,0.33c-0.42,0.22-0.78,0.51-1.08,0.87c-0.29,0.36-0.52,0.77-0.68,1.24c-0.15,0.46-0.23,0.95-0.23,1.45
			c0,0.55,0.07,1.07,0.21,1.54c0.14,0.48,0.35,0.9,0.61,1.24c0.27,0.35,0.6,0.63,0.99,0.83c0.39,0.2,0.84,0.3,1.33,0.3
			c0.39,0,0.75-0.08,1.06-0.25c0.25-0.13,0.49-0.31,0.69-0.54c0.01,0.01,0.01,0.03,0.02,0.04c0.04,0.08,0.08,0.15,0.12,0.23
			c0.04,0.07,0.09,0.14,0.14,0.2c0.05,0.07,0.1,0.12,0.15,0.16l0.03,0.03h1.75l-0.07-0.16
			C417.38,188.19,417.31,187.99,417.25,187.78L417.25,187.78z M415.14,182.67v4.1c-0.21,0.12-0.41,0.21-0.59,0.26
			c-0.2,0.05-0.43,0.08-0.68,0.08c-0.24,0-0.46-0.06-0.64-0.19c-0.18-0.13-0.34-0.31-0.46-0.53c-0.13-0.22-0.22-0.49-0.28-0.78
			c-0.06-0.3-0.09-0.61-0.09-0.92c0-0.31,0.04-0.6,0.12-0.88c0.08-0.27,0.19-0.51,0.33-0.72c0.14-0.2,0.32-0.36,0.52-0.48
			c0.2-0.12,0.44-0.17,0.7-0.17c0.22,0,0.42,0.02,0.61,0.07C414.83,182.55,414.99,182.6,415.14,182.67L415.14,182.67z"/>
		<path class="st0" d="M430.4,179.27c-0.41-0.48-0.94-0.87-1.59-1.15c-0.64-0.28-1.44-0.42-2.36-0.42h-2.6v10.85h2.53
			c0.63,0,1.21-0.07,1.71-0.2c0.5-0.14,0.95-0.33,1.34-0.58c0.38-0.25,0.72-0.55,0.99-0.89c0.27-0.34,0.49-0.72,0.66-1.13
			c0.17-0.41,0.29-0.85,0.37-1.32c0.08-0.46,0.11-0.95,0.11-1.44c0-0.71-0.09-1.39-0.28-2.02
			C431.1,180.32,430.8,179.75,430.4,179.27L430.4,179.27z M425.82,179.29h0.53c0.58,0,1.08,0.1,1.47,0.31
			c0.4,0.2,0.73,0.48,0.97,0.81c0.25,0.34,0.43,0.73,0.54,1.17c0.11,0.44,0.17,0.91,0.17,1.38c0,0.68-0.08,1.27-0.25,1.77
			c-0.16,0.5-0.39,0.91-0.69,1.24c-0.29,0.32-0.64,0.57-1.03,0.73c-0.4,0.16-0.84,0.24-1.31,0.24h-0.42V179.29L425.82,179.29z"/>
		<path class="st0" d="M438.99,187.19c-0.08,0.02-0.17,0.03-0.26,0.05c-0.08,0.01-0.14,0.02-0.17,0.02c-0.08,0-0.14-0.01-0.19-0.03
			c-0.04-0.02-0.07-0.04-0.1-0.09c-0.03-0.05-0.05-0.12-0.07-0.21c-0.02-0.1-0.02-0.23-0.02-0.38v-3.27c0-0.41-0.08-0.78-0.25-1.09
			c-0.16-0.31-0.38-0.56-0.66-0.75c-0.27-0.19-0.58-0.34-0.93-0.43c-0.34-0.09-0.71-0.14-1.08-0.14c-0.55,0-1.09,0.1-1.59,0.3
			c-0.5,0.2-0.94,0.48-1.31,0.84l-0.08,0.07l1.01,1.24l0.09-0.09c0.19-0.19,0.36-0.35,0.51-0.47c0.15-0.12,0.29-0.22,0.43-0.29
			c0.13-0.07,0.27-0.12,0.4-0.15c0.29-0.06,0.65-0.06,0.91,0.03c0.14,0.05,0.26,0.12,0.36,0.21c0.1,0.1,0.18,0.22,0.23,0.38
			c0.06,0.16,0.09,0.35,0.09,0.58v0.15c-0.32,0-0.64,0.02-0.95,0.05c-0.35,0.03-0.68,0.09-1,0.17c-0.32,0.08-0.61,0.19-0.88,0.32
			c-0.27,0.14-0.51,0.32-0.71,0.53c-0.2,0.21-0.36,0.47-0.47,0.77c-0.11,0.29-0.17,0.64-0.17,1.03c0,0.35,0.05,0.66,0.15,0.92
			c0.1,0.27,0.24,0.49,0.42,0.67c0.18,0.18,0.41,0.32,0.67,0.41c0.41,0.14,0.91,0.17,1.44,0.09c0.2-0.03,0.4-0.08,0.6-0.15
			c0.2-0.07,0.4-0.17,0.59-0.29c0.14-0.09,0.29-0.2,0.43-0.32c0.08,0.23,0.21,0.41,0.4,0.55c0.23,0.17,0.52,0.26,0.86,0.26
			c0.18,0,0.34-0.02,0.49-0.04c0.15-0.03,0.28-0.06,0.41-0.11c0.13-0.04,0.25-0.1,0.36-0.16c0.11-0.06,0.21-0.13,0.32-0.19
			l0.07-0.04l-0.22-0.97L438.99,187.19L438.99,187.19z M436.3,184.73v2.03c-0.12,0.08-0.23,0.16-0.35,0.21
			c-0.13,0.06-0.25,0.12-0.38,0.15c-0.12,0.04-0.25,0.06-0.36,0.07c-0.24,0.03-0.48,0.04-0.67-0.03c-0.09-0.03-0.17-0.07-0.23-0.14
			c-0.06-0.07-0.12-0.16-0.15-0.27c-0.04-0.12-0.06-0.27-0.06-0.46c0-0.22,0.03-0.43,0.1-0.61c0.06-0.18,0.18-0.33,0.35-0.46
			c0.17-0.14,0.41-0.25,0.7-0.34C435.53,184.8,435.88,184.75,436.3,184.73L436.3,184.73z"/>
		<path class="st0" d="M444.65,186.22c-0.15,0.2-0.29,0.36-0.42,0.49c-0.12,0.13-0.26,0.23-0.39,0.3c-0.13,0.08-0.28,0.13-0.44,0.16
			c-0.16,0.03-0.35,0.05-0.57,0.05c-0.24,0-0.44-0.07-0.63-0.2c-0.19-0.14-0.35-0.32-0.48-0.53c-0.13-0.21-0.23-0.44-0.3-0.69
			c-0.06-0.2-0.09-0.38-0.1-0.55h4.23l0.02-0.1c0.03-0.2,0.06-0.4,0.07-0.6c0.01-0.19,0.02-0.37,0.02-0.55
			c0-0.47-0.06-0.9-0.19-1.29c-0.13-0.39-0.32-0.72-0.57-0.99c-0.25-0.27-0.57-0.49-0.95-0.63c-0.37-0.14-0.81-0.22-1.3-0.22
			c-0.55,0-1.04,0.11-1.45,0.32c-0.41,0.21-0.76,0.49-1.03,0.85c-0.27,0.35-0.48,0.76-0.61,1.21c-0.13,0.45-0.2,0.93-0.2,1.43
			c0,0.51,0.06,1.02,0.19,1.49c0.13,0.48,0.33,0.91,0.6,1.29c0.27,0.37,0.63,0.68,1.05,0.9c0.43,0.22,0.95,0.34,1.54,0.34
			c0.27,0,0.54-0.02,0.79-0.05c0.26-0.03,0.51-0.1,0.76-0.2c0.25-0.1,0.5-0.24,0.75-0.43c0.25-0.19,0.51-0.44,0.77-0.74l0.07-0.08
			l-1.17-1.09L444.65,186.22L444.65,186.22z M441.96,182.56c0.15-0.09,0.36-0.13,0.6-0.13c0.26,0,0.46,0.05,0.61,0.15
			c0.15,0.1,0.26,0.23,0.34,0.38c0.08,0.16,0.14,0.33,0.16,0.52c0.02,0.16,0.03,0.31,0.04,0.46h-2.37c0.01-0.17,0.03-0.34,0.06-0.51
			c0.04-0.19,0.11-0.37,0.2-0.52C441.68,182.77,441.8,182.65,441.96,182.56L441.96,182.56z"/>
		<path class="st0" d="M452.23,181.07c-0.32,0.04-0.66,0.12-1.01,0.23c-0.14-0.07-0.27-0.12-0.38-0.17
			c-0.13-0.05-0.26-0.1-0.38-0.14c-0.13-0.04-0.27-0.07-0.42-0.08c-0.15-0.02-0.32-0.03-0.5-0.03c-0.42,0-0.81,0.06-1.17,0.17
			c-0.36,0.12-0.68,0.29-0.93,0.51c-0.26,0.22-0.47,0.5-0.62,0.82c-0.15,0.32-0.22,0.7-0.22,1.12c0,0.23,0.02,0.45,0.05,0.65
			c0.04,0.2,0.09,0.39,0.17,0.56c0.08,0.17,0.18,0.34,0.31,0.49c0.09,0.11,0.19,0.22,0.31,0.32c-0.1,0.05-0.2,0.11-0.3,0.17
			c-0.14,0.09-0.27,0.2-0.38,0.32c-0.11,0.12-0.2,0.26-0.26,0.41c-0.06,0.15-0.09,0.31-0.09,0.48c0,0.24,0.05,0.46,0.14,0.62
			c0.09,0.16,0.2,0.3,0.33,0.42c0.13,0.11,0.26,0.2,0.39,0.27c0.05,0.03,0.11,0.05,0.15,0.08c-0.12,0.07-0.23,0.15-0.34,0.23
			c-0.17,0.12-0.32,0.26-0.45,0.42c-0.13,0.16-0.24,0.34-0.32,0.54c-0.08,0.2-0.12,0.44-0.12,0.7c0,0.24,0.06,0.47,0.18,0.66
			c0.12,0.2,0.31,0.37,0.56,0.51c0.24,0.14,0.55,0.24,0.92,0.32c0.36,0.07,0.8,0.11,1.29,0.11c0.27,0,0.55-0.01,0.84-0.04
			c0.29-0.02,0.58-0.07,0.86-0.13c0.28-0.07,0.55-0.16,0.81-0.27c0.26-0.12,0.49-0.27,0.68-0.46c0.2-0.19,0.36-0.42,0.47-0.68
			c0.12-0.26,0.18-0.57,0.18-0.93c0-0.27-0.05-0.51-0.14-0.7c-0.09-0.2-0.22-0.37-0.37-0.51c-0.15-0.14-0.33-0.25-0.54-0.34
			c-0.2-0.09-0.41-0.16-0.63-0.22c-0.22-0.06-0.45-0.11-0.68-0.15c-0.23-0.04-0.45-0.08-0.67-0.12c-0.13-0.02-0.27-0.05-0.42-0.08
			c-0.15-0.03-0.31-0.06-0.46-0.09c-0.15-0.03-0.3-0.07-0.45-0.11c-0.14-0.04-0.27-0.09-0.37-0.13c-0.1-0.05-0.19-0.09-0.25-0.14
			c-0.04-0.03-0.06-0.06-0.06-0.09c0-0.12,0.03-0.22,0.08-0.31c0.05-0.07,0.1-0.14,0.15-0.2c0.16,0.07,0.35,0.13,0.56,0.17
			c0.25,0.05,0.56,0.08,0.95,0.08c0.28,0,0.57-0.06,0.87-0.18c0.3-0.12,0.58-0.29,0.83-0.51c0.25-0.22,0.46-0.5,0.62-0.82
			c0.16-0.33,0.25-0.7,0.25-1.11c0-0.36-0.04-0.68-0.13-0.94c-0.05-0.15-0.1-0.27-0.15-0.38l1.03,0.18l0.32-1.56h-0.14
			C452.87,181,452.56,181.02,452.23,181.07L452.23,181.07z M447.92,189.67c0-0.09,0.01-0.18,0.02-0.28
			c0.01-0.09,0.04-0.19,0.08-0.28c0.04-0.09,0.08-0.19,0.14-0.27c0.04-0.07,0.1-0.13,0.16-0.19c0.21,0.02,0.42,0.05,0.65,0.09
			c0.25,0.05,0.55,0.11,0.88,0.18c0.21,0.05,0.41,0.1,0.59,0.14c0.17,0.05,0.32,0.1,0.45,0.16c0.12,0.05,0.21,0.12,0.28,0.19
			c0.06,0.06,0.08,0.12,0.08,0.2c0,0.14-0.03,0.28-0.09,0.4c-0.06,0.12-0.16,0.23-0.3,0.32c-0.15,0.1-0.35,0.17-0.61,0.23
			c-0.26,0.06-0.59,0.09-0.97,0.09c-0.17,0-0.34-0.03-0.5-0.09c-0.17-0.06-0.31-0.14-0.44-0.23c-0.12-0.09-0.23-0.2-0.3-0.32
			C447.96,189.9,447.92,189.79,447.92,189.67L447.92,189.67z M449.36,182.14c0.35,0,0.61,0.1,0.79,0.31
			c0.18,0.21,0.27,0.57,0.27,1.06c0,0.21-0.01,0.42-0.03,0.61c-0.02,0.19-0.07,0.35-0.13,0.49c-0.06,0.13-0.16,0.24-0.28,0.32
			c-0.12,0.08-0.28,0.12-0.49,0.12c-0.2,0-0.38-0.04-0.52-0.13c-0.14-0.08-0.26-0.2-0.35-0.34c-0.09-0.14-0.16-0.31-0.2-0.51
			c-0.04-0.2-0.06-0.41-0.06-0.62c0-0.45,0.1-0.78,0.28-1C448.82,182.25,449.05,182.14,449.36,182.14L449.36,182.14z"/>
		<path class="st0" d="M460,188.41c-0.05-0.28-0.09-0.54-0.11-0.76c-0.03-0.21-0.04-0.38-0.04-0.49v-6.16h-1.87v5.65
			c-0.25,0.15-0.52,0.27-0.81,0.34c-0.32,0.08-0.64,0.12-0.94,0.12c-0.13,0-0.24-0.02-0.35-0.06c-0.1-0.03-0.19-0.09-0.27-0.17
			c-0.08-0.08-0.14-0.18-0.19-0.3c-0.05-0.13-0.07-0.28-0.07-0.46v-5.13h-1.87v5c0,0.36,0.04,0.71,0.12,1.03
			c0.08,0.33,0.22,0.61,0.41,0.86c0.19,0.24,0.45,0.44,0.77,0.58c0.31,0.14,0.71,0.21,1.18,0.21c0.19,0,0.39-0.02,0.59-0.07
			c0.2-0.05,0.41-0.12,0.61-0.2c0.2-0.09,0.4-0.19,0.58-0.31c0.12-0.08,0.24-0.16,0.35-0.25l0.05,0.22
			c0.02,0.09,0.04,0.17,0.06,0.25c0.02,0.08,0.03,0.13,0.04,0.16l0.02,0.08h1.77L460,188.41L460,188.41z"/>
	</g>
</g>
</svg>
